<svg width="1024" height="1024" fill="none" xmlns="http://www.w3.org/2000/svg"><path d="M676.836 205.842c0 78.049 63.271 141.32 141.32 141.32 16.244 0 31.821-2.734 46.314-7.759 16.528-5.404 22.528-4.404 26.778 0 7.25 6.596 3.75 19.096-5.249 35.425-29.842 52.627-86.378 88.171-151.246 88.171-95.962 0-173.753-77.792-173.753-173.754 0-64.868 35.544-121.403 88.17-151.246C665.5 129 678 125.5 684.595 132.75c4.405 4.25 5.405 10.25 0 26.778-5.025 14.493-7.759 30.07-7.759 46.314Z" fill="url(#weather-moon__a)"/><defs><linearGradient id="weather-moon__a" x1="728.073" y1="128.852" x2="728.073" y2="462.999" gradientUnits="userSpaceOnUse"><stop stop-color="color(display-p3 .9961 .9843 .8902)"/><stop offset="1" stop-color="color(display-p3 .925 .812 .5935)"/></linearGradient></defs></svg>