<svg width="256" height="256" viewBox="0 0 256 256" fill="none" xmlns="http://www.w3.org/2000/svg">
<g clip-path="url(#clip0)">
<mask id="mask0" mask-type="alpha" maskUnits="userSpaceOnUse" x="0" y="-1" width="256" height="257">
<path d="M128 255.765C198.692 255.765 256 198.457 256 127.765C256 57.0721 198.692 -0.235474 128 -0.235474C57.3075 -0.235474 0 57.0721 0 127.765C0 198.457 57.3075 255.765 128 255.765Z" fill="#C3DFC3"/>
</mask>
<g mask="url(#mask0)">
<path d="M125.094 -2C115.772 -2 106.966 -0.767405 98.1125 1.73065C101.641 5.87217 118.036 26.7277 122.471 42.472C127.311 59.6626 135.118 98.0374 109.043 127.735C82.9667 157.432 78.75 163.25 78.75 163.25L142.925 157.58C142.925 157.58 107.325 179.767 105.295 227.92C106.169 235.316 107.887 256.631 108.418 262.433C111.369 262.696 122.08 262.104 125.094 262.104C188.004 262.104 264 202.989 264 130.052C264 57.1152 203 -2 125.094 -2Z" fill="#5AA87D"/>
<path d="M91.5108 0.53345C96.3662 3.88418 100.217 8.90194 103.764 13.7697C107.234 18.5207 110.369 23.5718 113.109 28.873C118.543 39.3919 122.424 50.9778 123.901 62.9804C125.392 75.1497 124.175 87.4357 120.4 98.9883C116.503 110.941 110.232 121.827 102.896 131.579C95.0877 141.964 86.0922 151.15 76.9597 160.118C75.8181 161.235 74.6766 162.352 73.5198 163.469C73.4132 163.586 74.7375 163.802 74.5244 163.769C75.3158 163.869 76.153 163.902 76.9445 163.886C77.7512 163.886 78.5579 163.869 79.3646 163.769C79.6994 163.719 80.1104 163.719 80.3692 163.469C89.5625 154.517 98.7407 145.465 106.853 135.296C114.555 125.661 121.298 114.975 125.788 103.106C130.126 91.67 132.074 79.384 131.146 67.0146C130.233 54.962 126.808 43.2261 121.755 32.5071C119.182 27.0559 116.199 21.8548 112.85 16.937C109.502 12.0193 105.834 7.06821 101.541 3.08401C100.461 2.08379 99.3191 1.15025 98.1166 0.316736C97.7818 0.0833514 96.8837 0.0833514 96.5489 0.0666811C95.6813 -9.68575e-08 94.7833 -0.0166703 93.9157 0.0166703C93.2307 0.0500109 92.5306 0.0500109 91.8761 0.216714C91.7087 0.250055 91.2064 0.333406 91.5108 0.53345Z" fill="#043419"/>
<path d="M77.8729 166.154C79.9885 165.971 82.1042 165.789 84.2199 165.606C85.2245 165.515 86.2291 165.439 87.2489 165.347C87.7512 165.302 88.2534 165.271 88.7557 165.226C89.0601 165.195 89.3646 165.18 89.669 165.149C89.8364 165.134 90.7344 165.058 89.9734 165.119C94.2048 164.784 98.4514 164.449 102.683 164.145C111.054 163.536 119.441 162.988 127.828 162.501C132.576 162.227 137.325 161.968 142.074 161.725C141.267 160.568 140.461 159.396 139.654 158.239C128.406 166.169 119.03 176.519 112.272 188.513C105.042 201.36 101.1 215.987 100.765 230.721C100.567 239.397 101.648 248.057 103.885 256.444C104.037 257.022 104.981 257.494 105.453 257.661C106.244 257.935 107.279 258.027 108.086 257.875C109.395 257.616 110.887 256.9 110.476 255.363C106.671 241.101 106.564 225.622 110.187 211.314C111.876 204.602 114.372 198.103 117.584 191.969C120.704 186.002 124.159 180.903 128.452 175.865C130.841 173.049 133.398 170.401 136.123 167.904C137.493 166.641 138.908 165.423 140.354 164.251C140.704 163.977 141.054 163.688 141.404 163.414C141.496 163.338 141.922 163.019 141.541 163.308C141.739 163.156 141.922 163.019 142.12 162.866C142.896 162.273 143.688 161.71 144.479 161.146C145.255 160.598 145.818 159.822 145.194 158.909C144.57 157.996 143.124 157.6 142.059 157.646C125.027 158.498 108.01 159.609 91.0236 160.964C86.0312 161.36 81.0388 161.77 76.0464 162.212C74.9048 162.318 73.0479 163.338 73.6567 164.723C74.3112 166.215 76.5487 166.261 77.8729 166.154Z" fill="#043419"/>
<path d="M105.103 214.861C114.372 217.25 124.205 217.524 133.596 215.683C143.003 213.841 151.922 210.157 159.791 204.663C164.144 201.619 168.056 198.026 171.557 194.023C171.907 193.628 171.496 193.019 171.207 192.775C170.689 192.334 169.806 192.105 169.167 192.029C167.706 191.862 165.971 191.999 164.951 193.171C162.257 196.261 158.893 199.335 155.484 201.877C154.586 202.547 153.672 203.186 152.744 203.81C152.333 204.084 151.907 204.358 151.481 204.632C151.389 204.693 150.765 205.074 151.131 204.845C150.872 205.013 150.598 205.165 150.339 205.317C148.497 206.413 146.595 207.402 144.646 208.3C143.672 208.742 142.698 209.168 141.709 209.564C141.222 209.762 140.72 209.96 140.217 210.142C140.095 210.188 139.7 210.325 140.263 210.127C140.156 210.157 140.05 210.203 139.943 210.249C139.654 210.355 139.365 210.447 139.076 210.553C137.067 211.238 135.027 211.816 132.957 212.288C132.698 212.349 132.439 212.41 132.181 212.456C132.028 212.486 131.267 212.654 131.709 212.562C132.181 212.456 131.328 212.638 131.222 212.654C130.917 212.714 130.628 212.76 130.324 212.806C129.289 212.988 128.238 213.141 127.188 213.262C126.701 213.323 126.214 213.369 125.727 213.415C125.468 213.445 125.21 213.46 124.936 213.491C124.783 213.506 124.631 213.521 124.479 213.521C123.992 213.552 124.57 213.476 124.707 213.506C124.266 213.399 123.581 213.567 123.124 213.582C122.592 213.597 122.074 213.613 121.541 213.613C120.339 213.628 119.136 213.597 117.934 213.536C117.827 213.536 117.706 213.521 117.599 213.521C117.158 213.491 118.36 213.582 117.721 213.521C117.416 213.491 117.127 213.476 116.823 213.445C116.229 213.399 115.62 213.323 115.027 213.262C113.87 213.125 112.713 212.943 111.572 212.73C111.419 212.699 111.282 212.669 111.13 212.654C110.689 212.578 111.724 212.775 111.282 212.684C110.993 212.623 110.689 212.562 110.4 212.501C109.776 212.364 109.152 212.212 108.528 212.045C107.112 211.679 105.027 211.603 103.84 212.623C102.698 213.643 104.113 214.602 105.103 214.861Z" fill="#043419"/>
<path d="M163 99.25C163 105.463 159.866 110.5 156 110.5C152.134 110.5 149 105.463 149 99.25C149 93.0368 152.134 88 156 88C159.866 88 163 93.0368 163 99.25Z" fill="#043419"/>
<path d="M94 100C94 106.351 90.7541 111.5 86.75 111.5C82.7459 111.5 79.5 106.351 79.5 100C79.5 93.6487 82.7459 88.5 86.75 88.5C90.7541 88.5 94 93.6487 94 100Z" fill="#043419"/>
</g>
</g>
<defs>
<clipPath id="clip0">
<rect width="256" height="256" fill="white"/>
</clipPath>
</defs>
</svg>
