<svg width="1024" height="1024" fill="none" xmlns="http://www.w3.org/2000/svg"><g clip-path="url(#yellow-stripes__a)" fill="color(display-p3 .851 .851 .851)"><path d="M1024 64 64 1024H0v-4L1020 0h4v64Zm0 128-832 832h-68l900-900v68Zm0 128-704 704h-68l772-772v68Zm0 128.001L448 1024h-68l644-644v68.001Zm0 128L576 1024h-68l516-515.999v68Zm0 128L704 1024h-68l388-387.999v68Zm0 128L832 1024h-68l260-259.999v68Zm0 128L960 1024h-68l132-131.999v68Zm-1024 0v-68l892-892h68L0 960Zm0-128v-68l764-764h68L0 832Zm0-128v-68l636-636h68L0 704Zm0-128v-68l508-508h68L0 576Zm0-128V380L380 0h68L0 448.001ZM0 320v-68L252 0h68L0 320Zm0-128v-68L124 0h68L0 192ZM0 64V0h64L0 64Z"/></g><defs><clipPath id="yellow-stripes__a"><path fill="#fff" d="M0 0h1024v1024H0z"/></clipPath></defs></svg>