<svg width="1024" height="1024" fill="none" xmlns="http://www.w3.org/2000/svg"><path d="M369.6 128c-53.765 0-80.648 0-101.183 10.463a96 96 0 0 0-41.954 41.954C216 200.952 216 227.835 216 281.6v364.8c0 53.765 0 80.648 10.463 101.183a96 96 0 0 0 41.954 41.954C288.952 800 315.835 800 369.6 800h284.8c53.765 0 80.648 0 101.183-10.463a96 96 0 0 0 41.954-41.954C808 727.048 808 700.165 808 646.4V281.6c0-53.765 0-80.648-10.463-101.183a96 96 0 0 0-41.954-41.954C735.048 128 708.165 128 654.4 128H369.6Z" fill="url(#news-top__a)"/><defs><linearGradient id="news-top__a" x1="512" y1="128" x2="512" y2="800" gradientUnits="userSpaceOnUse"><stop stop-color="#fff"/><stop offset="1" stop-color="color(display-p3 .96 .96 .96)"/></linearGradient></defs></svg>