<svg width="1024" height="1024" fill="none" xmlns="http://www.w3.org/2000/svg"><path d="M568 634c11.046 0 20 8.954 20 20s-8.954 20-20 20H328c-11.046 0-20-8.954-20-20s8.954-20 20-20h240Zm128-100c11.046 0 20 8.954 20 20s-8.954 20-20 20H328c-11.046 0-20-8.954-20-20s8.954-20 20-20h368Zm0-100c11.046 0 20 8.954 20 20s-8.954 20-20 20H328c-11.046 0-20-8.954-20-20s8.954-20 20-20h368ZM425.6 228c13.441 0 20.162 0 25.296 2.616a24.008 24.008 0 0 1 10.488 10.488C464 246.238 464 252.959 464 266.4v75.2c0 13.441 0 20.162-2.616 25.296a24.008 24.008 0 0 1-10.488 10.488C445.762 380 439.041 380 425.6 380h-75.2c-13.441 0-20.162 0-25.296-2.616a24.008 24.008 0 0 1-10.488-10.488C312 361.762 312 355.041 312 341.6v-75.2c0-13.441 0-20.162 2.616-25.296a24.008 24.008 0 0 1 10.488-10.488C330.238 228 336.959 228 350.4 228h75.2ZM696 334c11.046 0 20 8.954 20 20s-8.954 20-20 20H536c-11.046 0-20-8.954-20-20s8.954-20 20-20h160Zm0-100c11.046 0 20 8.954 20 20s-8.954 20-20 20H536c-11.046 0-20-8.954-20-20s8.954-20 20-20h160Z" fill="color(display-p3 .7137 .7569 .7804)"/></svg>