<svg width="1024" height="1024" fill="none" xmlns="http://www.w3.org/2000/svg"><path d="M230.588 308.679c-44.421 5.848-66.632 8.773-82.46 19.651a80.002 80.002 0 0 0-30.099 39.226c-6.411 18.104-3.487 40.315 2.361 84.736l45.309 344.154c5.848 44.421 8.772 66.632 19.651 82.46a80.004 80.004 0 0 0 39.225 30.099c18.105 6.411 40.315 3.487 84.736-2.361l265.637-34.972c44.421-5.848 66.631-8.772 82.46-19.651a80.004 80.004 0 0 0 30.099-39.225c6.411-18.105 3.487-40.315-2.361-84.736l-45.309-344.155c-5.848-44.421-8.772-66.631-19.651-82.46a79.996 79.996 0 0 0-39.225-30.098c-18.105-6.412-40.316-3.488-84.737 2.361l-265.636 34.971Z" fill="color(display-p3 .9608 .8275 .2784)"/></svg>