<svg width="1024" height="1024" fill="none" xmlns="http://www.w3.org/2000/svg"><path d="M533.629 244.378c-44.421-5.848-66.632-8.772-84.736-2.361a80.002 80.002 0 0 0-39.226 30.099c-10.878 15.829-13.803 38.039-19.651 82.46l-45.308 344.155c-5.849 44.421-8.773 66.631-2.361 84.736a79.996 79.996 0 0 0 30.098 39.225c15.829 10.879 38.039 13.803 82.46 19.651l265.637 34.972c44.421 5.848 66.631 8.772 84.736 2.361a80.004 80.004 0 0 0 39.225-30.099c10.879-15.829 13.803-38.039 19.651-82.46l45.309-344.155c5.848-44.42 8.772-66.631 2.361-84.736a79.998 79.998 0 0 0-30.099-39.225c-15.828-10.879-38.039-13.803-82.46-19.651l-265.636-34.972Z" fill="color(display-p3 .7958 .5958 .451)"/></svg>