<svg width="1024" height="1024" fill="none" xmlns="http://www.w3.org/2000/svg"><path d="M416 411.2c0-40.324 0-60.486 7.848-75.887a71.987 71.987 0 0 1 31.465-31.465C470.714 296 490.876 296 531.2 296h249.6c40.324 0 60.486 0 75.887 7.848a71.987 71.987 0 0 1 31.465 31.465C896 350.714 896 370.876 896 411.2v217.6c0 40.324 0 60.486-7.848 75.887a71.987 71.987 0 0 1-31.465 31.465C841.286 744 821.124 744 780.8 744H531.2c-40.324 0-60.486 0-75.887-7.848a71.987 71.987 0 0 1-31.465-31.465C416 689.286 416 669.124 416 628.8V411.2Z" fill="url(#notes-top__a)"/><defs><linearGradient id="notes-top__a" x1="656" y1="296" x2="656" y2="744" gradientUnits="userSpaceOnUse"><stop stop-color="color(display-p3 .6784 .975 .9394)"/><stop offset="1" stop-color="color(display-p3 .3825 .85 .7939)"/></linearGradient></defs></svg>