<svg width="1024" height="1024" fill="none" xmlns="http://www.w3.org/2000/svg"><path fill-rule="evenodd" clip-rule="evenodd" d="M539.21 452.611c7.606 2.254 11.895 10.086 9.58 17.492-4.409 14.106-10.185 28.436-15.73 42.194-2.438 6.048-4.831 11.986-7.044 17.745-5.12 13.324-9.526 26.255-12.336 39.16a158.863 158.863 0 0 0 4.352-4.209c3.622-3.631 7.152-7.452 10.777-11.397l.668-.727c3.348-3.645 6.821-7.425 10.267-10.913 6.177-6.253 12.434-12.834 18.803-19.533 13.977-14.702 28.497-29.974 43.91-43.602.177-.156.385-.342.622-.553 2.716-2.421 9.256-8.249 16.439-12.796 3.849-2.437 8.821-5.125 14.201-6.47 5.373-1.343 13.674-1.877 20.876 3.768 5.62 4.405 7.404 10.51 8.033 14.482.663 4.185.433 8.414.038 11.824-.623 5.382-2.041 11.236-2.75 14.163a74.72 74.72 0 0 0-.355 1.501c-1.608 7.385-3.843 14.682-5.885 21.345l-.439 1.436c8.359-4.639 16.117-10.088 23.089-16.371 7.112-6.408 13.25-13.174 19.907-20.511 3.028-3.338 6.164-6.794 9.547-10.388 1.249-1.328 2.857-2.844 4.825-4.112 1.891-1.218 5.183-2.896 9.507-2.906 10.587-.024 14.605 8.783 15.314 10.431 1.004 2.333 1.606 5.009 1.899 6.313l.068.304c.416 1.819.6 2.505.744 2.876 3.934 10.2 9.181 17.498 13.972 20.557 2.047 1.306 3.683 1.648 5.22 1.528 1.662-.129 4.659-.923 9.054-4.332 8.214-6.37 15.567-14.203 23.346-23.033 1.503-1.706 3.034-3.465 4.595-5.257 6.242-7.169 12.946-14.868 20.124-21.827 5.634-5.462 14.749-5.443 20.358.043 5.609 5.487 5.589 14.362-.045 19.824-6.231 6.041-11.926 12.577-18.077 19.635a1353.906 1353.906 0 0 1-5.104 5.836c-7.953 9.027-16.783 18.582-27.26 26.708-7.665 5.944-15.949 9.668-24.696 10.349-8.872.691-16.774-1.863-23.299-6.028-9.379-5.987-16.271-15.469-21.124-25.076-6.048 6.622-12.501 13.497-19.321 19.643-12.934 11.654-27.768 20.771-43.551 27.609.423-.178-5.064 2.509-9.33 3.781-1.69.504-6.559 1.933-11.746.715-3.257-.764-7.545-2.815-10.263-7.393-2.515-4.236-2.369-8.463-1.945-11.015 1.449-8.712 3.915-17.096 6.233-24.705l.811-2.657c2.078-6.791 3.958-12.939 5.307-19.135.234-1.077.5-2.183.773-3.321.415-1.73.848-3.534 1.217-5.424-4.394 3.022-8.462 6.632-10.944 8.835l-.631.559c-14.49 12.812-27.538 26.545-41.04 40.755-6.579 6.924-13.265 13.962-20.279 21.061-3.07 3.108-6.216 6.532-9.665 10.286l-.564.613c-3.601 3.918-7.495 8.141-11.58 12.236-8.069 8.088-17.696 16.531-29.066 22.043-2.911 1.411-7.693 3.166-13.234 2.104-6.596-1.264-10.505-5.69-12.348-9.559-1.592-3.341-1.911-6.646-2.001-8.604-.1-2.173.038-4.254.175-5.795 2.02-22.846 9.109-44.373 16.842-64.498 2.574-6.698 5.172-13.139 7.713-19.438 5.329-13.213 10.408-25.804 14.483-38.84 2.315-7.407 10.357-11.583 17.963-9.329Z" fill="color(display-p3 .3412 .7583 .7083)"/></svg>