<svg width="1024" height="1024" fill="none" xmlns="http://www.w3.org/2000/svg"><path opacity=".8" d="M288 523.2c0-40.324 0-60.486 7.848-75.887a71.987 71.987 0 0 1 31.465-31.465C342.714 408 362.876 408 403.2 408h249.6c40.324 0 60.486 0 75.887 7.848a71.987 71.987 0 0 1 31.465 31.465C768 462.714 768 482.876 768 523.2v217.6c0 40.324 0 60.486-7.848 75.887a71.987 71.987 0 0 1-31.465 31.465C713.286 856 693.124 856 652.8 856H403.2c-40.324 0-60.486 0-75.887-7.848a71.987 71.987 0 0 1-31.465-31.465C288 801.286 288 781.124 288 740.8V523.2Z" fill="url(#notes-middle__a)"/><defs><linearGradient id="notes-middle__a" x1="528" y1="408" x2="528" y2="856" gradientUnits="userSpaceOnUse"><stop stop-color="color(display-p3 1 .8042 .9687)"/><stop offset="1" stop-color="color(display-p3 .9042 .3654 .818)"/></linearGradient></defs></svg>