<svg width="1024" height="1024" fill="none" xmlns="http://www.w3.org/2000/svg"><path d="M144 283.2c0-40.324 0-60.486 7.848-75.887a71.987 71.987 0 0 1 31.465-31.465C198.714 168 218.876 168 259.2 168h249.6c40.324 0 60.486 0 75.887 7.848a71.987 71.987 0 0 1 31.465 31.465C624 222.714 624 242.876 624 283.2v217.6c0 40.324 0 60.486-7.848 75.887a71.987 71.987 0 0 1-31.465 31.465C569.286 616 549.124 616 508.8 616H259.2c-40.324 0-60.486 0-75.887-7.848a71.987 71.987 0 0 1-31.465-31.465C144 561.286 144 541.124 144 500.8V283.2Z" fill="#fff"/></svg>