<svg width="256" height="256" viewBox="0 0 256 256" fill="none" xmlns="http://www.w3.org/2000/svg">
<g clip-path="url(#clip0)">
<mask id="mask0" mask-type="alpha" maskUnits="userSpaceOnUse" x="0" y="0" width="256" height="257">
<path d="M128 256.049C198.692 256.049 256 198.73 256 128.025C256 57.3185 198.692 0 128 0C57.3076 0 0 57.3185 0 128.025C0 198.73 57.3076 256.049 128 256.049Z" fill="white"/>
</mask>
<g mask="url(#mask0)">
<path d="M58.1462 153.95C57.7698 147.657 75.1019 146.795 91.1256 131.297C94.6565 127.881 101.754 120.851 105.644 109.363C109.336 98.4495 108.26 88.9926 107.794 85.8104C105.518 70.2946 95.8574 55.9296 89.3332 46.257C85.8202 41.0251 82.6656 37.0159 82.8807 31.1548C83.06 25.9229 85.9098 19.2348 92.3802 16.0526C98.8327 12.8703 106.414 14.3985 110.662 18.21C113.548 20.799 113.243 22.9744 115.681 26.8399C118.029 30.5615 122.492 35.1461 131.812 38.3463C135.325 38.2204 140.881 37.8609 147.585 36.5484C156.995 34.7146 159.827 32.7729 166.584 32.9526C170.885 33.0605 178.055 33.2583 182.177 37.9867C183.665 39.6947 185.583 42.9309 184.328 58.123C183.02 73.9983 179.919 82.9338 182.177 84.0125C184.023 84.8934 186.353 79.0683 194.007 75.7422C196.337 74.7354 203.56 71.5891 210.496 75.0231C216.573 78.0255 220.964 85.3609 219.817 91.3838C218.777 96.8134 214.045 97.0112 207.629 106.846C204.241 112.059 202.538 114.666 202.969 117.992C203.506 122.164 206.858 123.422 216.232 132.016C226.215 141.185 226.574 143.558 226.628 144.601C226.914 149.473 222.254 150.444 217.666 159.703C215.712 163.677 212.737 169.682 214.081 176.064C215.282 181.763 218.903 182.932 221.967 187.93C227.058 196.218 224.979 205.873 222.326 218.134C221.43 222.252 217.702 239.529 207.987 252.114C177.732 291.272 96.7536 275.397 95.6064 266.497C95.3914 264.897 97.9186 264.736 101.7 260.025C108.44 251.629 111.63 238.271 108.153 227.483C103.798 213.945 90.0681 207.958 92.0217 204.471C92.7387 203.194 94.8537 203.5 98.1157 203.392C105.339 203.158 105.895 201.252 127.152 193.324C137.781 189.35 141.527 188.38 143.283 184.334C144.341 181.907 144.717 178.329 142.925 176.424C142.297 175.758 140.164 173.96 131.812 176.424C123.227 178.959 121.273 182.087 113.888 185.773C109.766 187.84 101.88 189.189 86.107 191.885C84.0099 192.245 79.0451 193.036 73.9189 190.807C73.0407 190.429 69.1154 188.721 69.2588 186.851C69.4022 185.071 73.1662 184.154 77.5037 182.896C77.5037 182.896 86.8597 180.163 99.5496 174.626C106.038 171.803 113.96 167.506 113.53 166.355C113.118 165.259 105.877 168.837 94.8895 168.872C82.3251 168.908 73.1841 164.27 68.5419 161.861C61.713 158.301 58.3075 156.539 58.1462 153.95Z" fill="#3995C3" stroke="#3995C3" stroke-width="1.25" stroke-miterlimit="10"/>
<path fill-rule="evenodd" clip-rule="evenodd" d="M82.8245 41.9045C82.8655 41.9942 82.907 42.0838 82.9488 42.1732C82.9921 42.2782 83.0506 42.3762 83.1225 42.4672C84.9304 45.8684 86.8323 49.2197 88.7341 52.5709L88.7346 52.5718C91.2941 57.0818 93.8534 61.5914 96.1828 66.2214C100.025 73.8723 103.581 82.1159 104.353 90.7366C105.107 99.0699 102.557 106.918 98.8044 114.264C94.836 121.987 89.2337 129.671 82.2486 134.897C80.5561 136.17 78.7587 137.304 76.9597 138.438L76.9589 138.438L76.9536 138.442L76.9483 138.445C76.518 138.716 76.0876 138.988 75.6586 139.261C73.2704 140.788 70.8643 142.314 68.4581 143.823C65.8877 145.437 63.3173 146.904 60.7443 148.374L60.7434 148.374C58.3918 149.717 56.0378 151.061 53.68 152.518C53.3011 152.755 53.1829 153.006 53.224 153.246C52.9838 153.575 52.9075 153.973 53.1413 154.44C55.3297 158.818 59.9657 160.847 64.2402 162.718L64.777 162.953C67.8476 164.3 70.954 165.629 74.1323 166.707C81.9074 169.347 90.0955 170.424 98.3016 169.939C99.646 169.862 100.985 169.751 102.32 169.61C99.0987 171.238 95.8626 172.835 92.5914 174.358C89.1079 175.974 86.0014 177.339 82.6436 178.668C81.6255 179.073 80.5919 179.458 79.5559 179.843C76.7368 180.892 73.8998 181.948 71.3131 183.445C69.9844 184.217 68.3862 185.259 67.7578 186.732C67.0395 188.456 67.9553 190.09 69.3379 191.168C70.2579 191.911 71.4741 192.323 72.5745 192.696L72.6239 192.712C73.7552 193.108 74.9223 193.377 76.1075 193.592C78.2263 194.006 80.435 194.131 82.5897 194.131C90.5264 194.149 98.4991 192.263 105.987 189.767C107.944 189.112 109.901 188.469 111.859 187.827C113.816 187.185 115.773 186.543 117.73 185.888C118.514 185.626 119.303 185.369 120.095 185.11C123.655 183.947 127.262 182.769 130.641 181.182C130.904 181.063 131.152 180.927 131.399 180.791C131.523 180.723 131.647 180.655 131.772 180.59L131.773 180.589C132.222 180.356 132.67 180.122 133.119 179.907C133.154 179.891 133.189 179.875 133.224 179.859L133.287 179.83L133.288 179.83C133.471 179.747 133.66 179.662 133.837 179.566C133.971 179.506 134.026 179.481 134.045 179.471L134.052 179.469C134.061 179.466 134.075 179.461 134.097 179.452L134.157 179.43C134.181 179.42 134.209 179.41 134.242 179.397L134.268 179.386C135.04 179.081 135.812 178.812 136.603 178.596L136.635 178.589L136.659 178.583C136.668 178.581 136.677 178.578 136.686 178.576L136.706 178.571L136.746 178.56C136.685 178.585 136.728 178.58 137.087 178.47C137.048 178.479 137.009 178.489 136.97 178.499L136.925 178.511C136.898 178.518 136.872 178.526 136.845 178.533L136.839 178.535C136.808 178.543 136.777 178.552 136.746 178.56C136.794 178.541 136.908 178.504 136.98 178.488C137.357 178.416 137.716 178.363 138.093 178.309L138.13 178.302L138.236 178.296C138.259 178.32 138.385 178.342 138.656 178.31L138.675 178.313C138.734 178.334 138.799 178.353 138.858 178.367C138.894 178.388 138.936 178.412 138.975 178.434C139.076 178.56 139.259 178.702 139.385 178.798C139.411 178.838 139.438 178.877 139.466 178.918C139.487 178.947 139.508 178.978 139.529 179.009C139.673 179.279 139.799 179.53 139.889 179.817C140.14 180.733 139.583 181.757 138.955 182.475C137.68 183.948 136.172 185.331 134.645 186.534C133.134 187.722 131.093 188.764 129.159 189.751C128.841 189.913 128.526 190.074 128.217 190.234C127.086 190.809 125.918 191.365 124.751 191.868C124.555 191.949 124.358 192.038 124.166 192.124C124.06 192.172 123.956 192.219 123.853 192.263C123.692 192.335 122.758 192.73 123.387 192.461C123.028 192.614 122.664 192.762 122.301 192.91L122.3 192.91C121.936 193.058 121.573 193.206 121.214 193.359C118.305 194.526 115.378 195.586 112.415 196.628C106.741 198.621 100.995 200.453 95.231 202.177C94.9441 202.262 94.6583 202.347 94.3732 202.431L93.597 202.662L93.5942 202.663C93.0519 202.824 92.5097 202.986 91.963 203.147C90.9418 203.449 89.8271 204.452 90.5682 205.445C90.6081 205.693 90.7404 205.953 90.9934 206.218C91.6321 206.891 92.2815 207.562 92.9333 208.235C97.1381 212.58 101.447 217.032 103.671 222.723C106.508 229.979 105.646 238.277 103.581 245.622C102.333 250.035 100.655 254.31 98.9845 258.565L98.8762 258.841C97.8168 261.517 104.461 262.163 105.376 259.864C108.483 251.98 111.643 243.898 112.128 235.349C112.362 231.29 111.948 227.195 110.727 223.316C109.578 219.652 107.513 216.437 105.161 213.438C103.174 210.923 100.962 208.623 98.7489 206.322L98.7392 206.312C98.4972 206.061 98.2551 205.809 98.0134 205.557C108.615 202.446 119.233 199.041 129.33 194.58C130.844 193.913 132.311 193.155 133.779 192.396L133.782 192.394C134.368 192.091 134.954 191.788 135.543 191.491C138.847 189.821 141.666 187.612 144.234 184.936C145.347 183.786 146.425 182.493 146.64 180.859C146.82 179.512 146.263 178.201 145.419 177.177C143.498 174.842 139.996 174.465 137.195 174.681C133.316 174.968 129.743 176.567 126.314 178.345C126.08 178.47 125.829 178.578 125.577 178.686C125.541 178.704 125.51 178.717 125.479 178.731L125.445 178.745C125.431 178.752 125.416 178.758 125.4 178.766L125.35 178.786C125.239 178.83 125.128 178.875 125.021 178.919C124.105 179.279 123.171 179.638 122.237 179.961C118.069 181.467 113.86 182.847 109.657 184.224C109.098 184.407 108.539 184.591 107.98 184.774C107.453 184.948 106.927 185.119 106.4 185.291C105.346 185.634 104.293 185.978 103.24 186.337C101.803 186.822 100.367 187.289 98.93 187.702C98.122 187.935 97.296 188.169 96.488 188.384L96.24 188.449C95.8427 188.552 95.4529 188.654 95.0515 188.743C94.9527 188.77 94.8539 188.793 94.7552 188.815C94.6564 188.838 94.5577 188.86 94.4589 188.887L94.2886 188.928C94.2358 188.939 94.1626 188.955 94.0639 188.977C92.0707 189.408 90.0775 189.767 88.0664 190.036C87.114 190.158 86.1448 190.262 85.1751 190.334L85.0977 190.338C84.8716 190.351 84.3979 190.378 84.2776 190.378C83.6671 190.414 83.0386 190.432 82.4281 190.414C81.9433 190.414 81.4585 190.396 80.9916 190.378C80.8839 190.369 80.7761 190.364 80.6684 190.36L80.5984 190.357L80.5522 190.354C80.5121 190.351 80.4456 190.347 80.3452 190.342L80.3549 190.343C80.2591 190.336 80.1607 190.329 80.1117 190.324C79.6269 190.27 79.1601 190.216 78.6752 190.144C78.4598 190.108 78.2443 190.072 78.0468 190.036C77.9959 190.019 77.1777 189.843 77.508 189.928C76.7256 189.727 75.6957 189.365 75.1558 189.156C75.0437 189.114 74.9637 189.085 74.908 189.067C74.9072 189.055 74.8915 189.033 74.8505 188.995C74.845 188.989 74.8109 188.952 74.7687 188.905L74.7668 188.903C74.6715 188.799 74.5373 188.651 74.5991 188.725C74.5006 188.613 74.2586 188.323 74.15 188.16C74.2063 188.199 74.2361 187.997 74.2221 188.025C74.231 188.007 74.231 187.935 74.231 187.859C74.231 187.806 74.231 187.75 74.2341 187.71C74.2413 187.68 74.2496 187.651 74.258 187.63L74.2804 187.585L74.3024 187.543C74.3235 187.502 74.3446 187.463 74.3657 187.423C74.4016 187.356 74.4375 187.289 74.4734 187.217C74.4839 187.198 74.4916 187.183 74.4969 187.171L74.5334 187.137L74.5632 187.109C74.7787 186.893 74.9942 186.696 75.2276 186.516C75.2555 186.492 75.28 186.471 75.3015 186.451C75.3038 186.451 75.3064 186.449 75.3094 186.448C75.3117 186.447 75.3141 186.446 75.3168 186.444C75.3237 186.441 75.3319 186.436 75.3417 186.431C75.3586 186.421 75.3802 186.408 75.4072 186.391C75.6227 186.247 75.8561 186.103 76.0895 185.978C76.8437 185.546 77.6338 185.151 78.4418 184.792C79.3217 184.379 80.1297 184.038 80.8659 183.768C84.7804 182.314 88.659 180.751 92.4837 179.081C99.361 176.082 106.041 172.687 112.721 169.275L112.737 169.266C114.285 168.469 115.832 167.672 117.391 166.876C117.498 166.849 117.605 166.823 117.712 166.796C118.88 166.509 119.957 165.216 118.916 164.174C117.766 163.007 115.755 163.133 114.301 163.492C113.295 163.743 111.913 164.067 110.566 164.354C109.201 164.641 107.836 164.911 106.472 165.144C104.084 165.557 101.677 165.863 99.2712 166.078C99.1994 166.087 99.1321 166.092 99.0647 166.096L99.0081 166.1C98.7246 166.117 98.44 166.133 98.14 166.15C97.5833 166.186 97.0267 166.204 96.4521 166.222C95.4106 166.258 94.3871 166.258 93.3456 166.24C92.358 166.222 91.3884 166.186 90.4008 166.114L90.3851 166.114L90.3828 166.114C90.1135 166.096 89.8621 166.078 89.5927 166.042C89.4322 166.024 89.2696 166.007 89.1063 165.991C88.7946 165.959 88.4805 165.928 88.1742 165.881C86.4324 165.665 84.7086 165.378 83.0027 165.001C82.926 164.987 82.8358 164.959 82.7425 164.931C82.6136 164.891 82.4788 164.85 82.3661 164.841L82.3563 164.839L81.1173 164.516C80.3272 164.3 79.5551 164.067 78.783 163.815C75.7484 162.845 72.7856 161.66 69.8587 160.403C69.6439 160.313 69.4292 160.219 69.2144 160.125L69.2101 160.123C68.9953 160.029 68.7806 159.936 68.5658 159.846C68.441 159.789 68.3156 159.732 68.1862 159.676L68.2067 159.684C68.1139 159.638 68.0078 159.592 67.9113 159.557C67.8675 159.538 67.8519 159.531 67.9026 159.554C67.89 159.549 67.8776 159.545 67.8655 159.541C66.8063 159.074 65.7465 158.607 64.7231 158.068C62.68 156.995 60.9114 155.825 59.7845 153.778C63.0777 151.745 66.3779 149.784 69.6713 147.827L69.674 147.825L69.6757 147.824C75.1396 144.577 80.5846 141.342 85.9476 137.806C93.2379 133.011 99.3072 125.489 103.689 117.964C107.962 110.636 111.32 102.213 111.23 93.6102C111.158 84.9715 107.908 76.5124 104.299 68.7897C101.561 62.9654 98.3897 57.3712 95.2178 51.7764C93.1471 48.1241 91.0763 44.4714 89.1259 40.7544C89.1158 40.7356 89.1051 40.7171 89.0938 40.6988C88.1444 38.5687 87.401 36.3351 86.9352 34.0553C86.4324 31.6128 86.0732 28.829 86.7376 26.3685C87.2763 24.3391 88.5871 22.3814 89.9698 20.9626C91.7654 19.1128 93.3456 18.0531 95.626 17.0294C95.6616 17.0116 95.6991 16.9938 95.7373 16.9767C95.7582 16.9697 95.8213 16.9469 95.8796 16.9236L95.9852 16.8857C96.2011 16.7994 96.4286 16.7245 96.6491 16.652C96.7036 16.634 96.7577 16.6162 96.8112 16.5984C96.8668 16.581 96.9218 16.5636 96.9764 16.5463C97.2035 16.4745 97.4235 16.4049 97.6551 16.3469C97.7364 16.3248 97.9455 16.2783 98.112 16.2412L98.1132 16.2409C98.2247 16.2161 98.3174 16.1955 98.3387 16.1895C98.8135 16.1045 99.2797 16.0319 99.7581 15.9718C99.7824 15.9714 99.8114 15.9707 99.8458 15.9698C100.007 15.9698 100.169 15.9653 100.331 15.9608C100.492 15.9563 100.654 15.9518 100.815 15.9518C100.834 15.9518 100.86 15.9511 100.891 15.9502C100.917 15.9495 100.945 15.9487 100.976 15.9481L100.995 15.9518C101.143 15.9795 101.295 15.9978 101.45 16.0162C101.596 16.0337 101.745 16.0514 101.893 16.0775C101.956 16.0955 102.023 16.1135 102.09 16.1314C102.158 16.1494 102.225 16.1673 102.288 16.1853C102.378 16.2122 102.463 16.2392 102.548 16.2661C102.634 16.2931 102.719 16.32 102.809 16.3469C102.866 16.366 102.902 16.3771 102.922 16.3826C104.173 16.9151 104.956 17.4334 105.933 18.2327C108.622 20.4573 110.537 23.349 112.453 26.2414C113.568 27.9259 114.684 29.6105 115.953 31.1638C117.82 33.4447 119.993 35.3844 122.597 36.7673C125.254 38.1861 128.217 39.0302 131.198 39.4612C137.393 40.3772 143.606 39.4792 149.675 38.1143C150.728 37.8748 151.782 37.6194 152.835 37.364C153.362 37.2363 153.889 37.1085 154.415 36.9828C154.792 36.893 155.174 36.7987 155.555 36.7044C155.937 36.6101 156.319 36.5158 156.696 36.426C157.073 36.3362 157.45 36.2464 157.845 36.1566L158.33 36.0489C158.402 36.0309 159.084 35.8872 158.671 35.977C160.197 35.6538 161.724 35.3664 163.268 35.1509C164.04 35.0431 164.812 34.9533 165.584 34.8815C165.702 34.8691 165.786 34.8604 165.845 34.8546C165.9 34.8502 165.946 34.8456 165.956 34.8444C165.965 34.8432 165.937 34.8454 165.845 34.8546C165.787 34.8592 165.72 34.8635 165.674 34.8635C165.757 34.8543 165.84 34.8498 165.925 34.8452C166.006 34.8409 166.089 34.8363 166.177 34.8276L166.227 34.8256C166.658 34.8083 167.073 34.7917 167.506 34.7917H168.655C168.753 34.7917 168.857 34.7962 168.96 34.8007C169.063 34.8052 169.166 34.8096 169.265 34.8096C169.276 34.8096 169.327 34.8127 169.385 34.8161C169.489 34.8222 169.613 34.8296 169.563 34.8231C169.646 34.8316 169.723 34.8402 169.75 34.8456C169.831 34.8545 169.907 34.8635 169.983 34.8725L170.099 34.8861C170.138 34.8905 170.177 34.895 170.217 34.8994C170.423 34.9264 170.625 34.9578 170.827 34.9892C171.029 35.0207 171.231 35.0521 171.438 35.079C171.463 35.084 171.519 35.0957 171.577 35.1079L171.677 35.1289L171.833 35.1657L171.891 35.1795L171.947 35.1931L171.995 35.2048C172.336 35.2946 172.677 35.4023 173.018 35.5101C173.103 35.541 173.188 35.5686 173.272 35.5957C173.382 35.6316 173.49 35.6667 173.593 35.7076C173.549 35.6968 173.46 35.6595 173.46 35.6598C173.459 35.66 173.497 35.676 173.611 35.7256C173.988 35.8872 174.347 36.0668 174.706 36.2824C175.622 36.8032 176.645 37.6653 177.471 38.6351C178.261 39.569 178.89 40.6466 179.411 41.7421C182.007 47.2342 181.347 53.4977 180.729 59.3602L180.686 59.7738C180.335 63.1768 179.985 66.5754 179.635 69.9739C179.285 73.3732 178.935 76.7724 178.585 80.1762C178.495 81.0375 178.405 81.8943 178.315 82.7512L178.315 82.7554L178.314 82.7638C178.225 83.6179 178.135 84.4721 178.046 85.3307C177.938 86.4082 179.788 86.9291 180.524 87.0189C181.763 87.1626 183.325 87.0728 184.331 86.2107L184.649 85.9343C188.637 82.4706 192.97 78.7079 197.78 76.8536C198.157 76.7099 198.965 76.4405 199.522 76.2789C199.674 76.234 199.827 76.1936 199.98 76.1532C200.132 76.1128 200.285 76.0724 200.438 76.0275C200.445 76.0275 200.537 76.0048 200.618 75.9842L200.712 75.966C200.876 75.934 201.134 75.8838 201.174 75.8838C201.479 75.8299 201.785 75.776 202.09 75.7401C202.251 75.7221 202.395 75.7042 202.556 75.6862C202.6 75.6775 202.775 75.6645 202.896 75.6556L202.919 75.6539C202.982 75.652 203.042 75.6503 203.059 75.6503H203.526C203.818 75.6503 204.109 75.6503 204.4 75.6599C204.255 75.6585 204.638 75.6958 204.896 75.7209C204.982 75.7293 205.054 75.7363 205.088 75.7401C205.169 75.7491 205.245 75.7625 205.321 75.776C205.398 75.7894 205.474 75.803 205.555 75.8119C205.573 75.8119 206.076 75.9017 205.753 75.8479C205.447 75.794 205.95 75.9017 205.95 75.9017C206.014 75.921 206.081 75.938 206.148 75.9551C206.269 75.9859 206.391 76.0172 206.507 76.0634C206.812 76.1532 207.099 76.243 207.387 76.3507L207.431 76.3664L207.8 76.5303C208.033 76.6381 208.284 76.7638 208.518 76.8895C208.751 77.0153 208.985 77.141 209.218 77.2847C209.258 77.3092 209.298 77.3338 209.339 77.3588C209.436 77.4172 209.536 77.4777 209.63 77.5449C209.512 77.4573 209.76 77.6286 209.793 77.6618C213.761 80.5893 215.97 85.0972 215.647 90.0721C215.485 92.6044 214.659 94.993 213.258 97.1123C212.001 98.9981 210.296 100.561 208.608 102.087L208.568 102.123C204.918 105.434 201.241 108.769 200.096 113.761C198.947 118.772 200.797 123.837 204.388 127.375C206.004 128.973 207.907 130.248 209.811 131.451C210.278 131.748 210.749 132.04 211.221 132.332L211.222 132.332C211.693 132.624 212.163 132.915 212.63 133.212C212.854 133.355 213.079 133.495 213.304 133.634C213.528 133.773 213.752 133.912 213.977 134.056C214.076 134.119 214.179 134.186 214.282 134.253C214.385 134.321 214.488 134.388 214.587 134.451C214.821 134.612 214.605 134.469 214.569 134.433C214.65 134.487 214.735 134.545 214.821 134.603C214.906 134.662 214.991 134.72 215.072 134.774C218.861 137.432 221.734 140.791 221.877 145.676C222.035 150.832 218.791 154.423 215.555 158.005L215.287 158.301C212.905 160.927 210.361 164.229 209.698 167.851C209.665 167.913 209.648 167.98 209.649 168.054L209.651 168.13C209.476 169.252 209.486 170.403 209.739 171.574C210.008 172.795 210.439 173.873 211.211 174.86C211.221 174.873 211.231 174.885 211.241 174.897C212.214 177.169 213.515 179.328 214.803 181.416C214.868 181.522 214.934 181.628 214.999 181.734L215.376 182.344C216.486 184.134 217.598 185.928 218.502 187.827C219.669 190.27 220.459 192.874 220.89 195.55C222.703 206.775 218.591 217.784 214.372 227.986C214.219 228.355 214.066 228.724 213.913 229.093L213.634 229.765C211.391 235.17 209.143 240.588 207.638 246.269C207.423 247.077 210.619 247.185 211.014 247.185C211.064 247.185 211.121 247.185 211.184 247.185C212.06 247.192 214.139 247.207 214.39 246.269C215.876 240.641 218.107 235.283 220.338 229.925C222.529 224.664 224.719 219.403 226.205 213.887C227.624 208.589 228.432 203.039 227.893 197.544C227.624 194.868 227.049 192.228 226.079 189.731C225.164 187.378 223.907 185.169 222.596 182.996C222.307 182.522 222.014 182.047 221.719 181.571C220.327 179.318 218.914 177.031 217.897 174.608C217.946 174.403 217.899 174.181 217.712 173.944C217.655 173.873 217.601 173.8 217.548 173.727C216.909 172.013 216.488 170.227 216.426 168.334C216.864 165.773 218.373 163.239 219.974 161.373C220.585 160.659 221.218 159.958 221.85 159.257C224.878 155.904 227.897 152.558 228.521 147.849C229.222 142.623 226.762 137.809 222.829 134.505C220.98 132.96 218.915 131.685 216.886 130.446C215.934 129.871 215 129.296 214.066 128.686C213.995 128.641 213.927 128.596 213.86 128.551C213.793 128.506 213.725 128.461 213.653 128.416C213.689 128.452 213.905 128.596 213.671 128.434L212.971 127.949C212.522 127.626 212.073 127.285 211.624 126.926C209.829 125.471 208.5 124.016 207.548 121.879C206.507 119.58 206.255 116.976 206.686 114.479C207.431 110.14 210.716 107.197 213.859 104.382L213.86 104.381C214.281 104.004 214.699 103.63 215.108 103.255C216.939 101.566 218.717 99.7524 220.046 97.6331C221.482 95.3163 222.29 92.5325 222.398 89.8206C222.632 84.4865 220.1 79.2962 215.826 76.0993C210.583 72.1841 203.921 71.5195 197.654 72.9204C193.175 73.9325 189.162 76.1513 185.478 78.8224C185.986 73.9143 186.491 69.0035 186.988 64.0842C187.083 63.172 187.187 62.2546 187.292 61.3336C187.961 55.4543 188.647 49.4294 186.97 43.6998C186.18 40.9878 184.798 38.4735 182.84 36.426C180.542 34.0374 177.453 32.6724 174.257 31.972C167.164 30.4274 159.784 31.9002 152.853 33.5525C152.261 33.6957 151.668 33.8413 151.077 33.9867L151.074 33.9874C150.035 34.2428 148.998 34.4976 147.969 34.7378C147.215 34.9174 146.443 35.097 145.688 35.2586C146.101 35.1688 145.563 35.2766 145.509 35.2946C145.293 35.3305 145.078 35.3843 144.863 35.4382C144.468 35.528 144.054 35.5999 143.641 35.6717C142.241 35.9232 140.822 36.1207 139.386 36.2644C139.287 36.2734 139.193 36.2824 139.098 36.2913L139.016 36.2992L138.991 36.3003C138.82 36.3093 138.653 36.3183 138.487 36.3273L137.985 36.3542C137.213 36.3901 136.459 36.3901 135.687 36.3722L135.638 36.3696C135.327 36.3532 135.029 36.3375 134.718 36.3363C134.628 36.3273 134.533 36.3183 134.439 36.3093C134.345 36.3003 134.25 36.2913 134.16 36.2824C133.46 36.2105 132.76 36.1028 132.078 35.977C131.915 35.9446 131.753 35.9122 131.578 35.8798C131.556 35.8751 131.536 35.8714 131.521 35.8693L131.578 35.8798C131.74 35.9136 132.024 35.9956 131.503 35.8693C131.198 35.7974 130.874 35.7076 130.569 35.6178C130.264 35.5281 129.959 35.4382 129.653 35.3305C129.564 35.3035 129.478 35.2721 129.393 35.2407C129.308 35.2093 129.222 35.1778 129.133 35.1509C128.971 35.097 128.756 35.0072 129.043 35.115C126.421 34.0194 124.464 32.5108 122.561 30.3197C121.028 28.5556 119.74 26.6053 118.453 24.6562C116.543 21.7634 114.634 18.8732 111.93 16.5984C109.488 14.551 106.561 13.1142 103.383 12.6831C100.331 12.2701 97.2062 12.5754 94.2434 13.4015C89.1079 14.8563 84.1519 18.1609 81.4764 22.8843C78.7111 27.7514 79.8244 33.5884 81.5303 38.6351C81.8324 39.5155 82.1634 40.3862 82.5303 41.2404C82.5423 41.3323 82.5734 41.4277 82.6257 41.5266C82.6918 41.6527 82.7581 41.7786 82.8245 41.9045ZM95.7507 16.9708C95.824 16.9383 95.8992 16.9084 95.9672 16.8857C95.9457 16.8965 95.9135 16.9101 95.8796 16.9236C95.8132 16.9475 95.7725 16.9625 95.7507 16.9708ZM95.7507 16.9708C95.7287 16.9791 95.7258 16.9805 95.7351 16.9774L95.7373 16.9767L95.7507 16.9708ZM67.9026 159.554L67.9113 159.557L68.0545 159.619C68.0218 159.605 67.9888 159.591 67.9553 159.577L67.9026 159.554ZM80.3549 190.343C80.4389 190.348 80.5211 190.353 80.5665 190.355C80.5344 190.354 80.5024 190.352 80.4703 190.35L80.4168 190.347L80.3821 190.345L80.3549 190.343ZM80.5916 190.357C80.6027 190.357 80.6057 190.357 80.5984 190.357L80.5916 190.357ZM138.585 178.297C138.601 178.297 138.617 178.298 138.633 178.298C138.643 178.302 138.652 178.305 138.662 178.309L138.656 178.31L138.585 178.297ZM138.585 178.297C138.535 178.288 138.484 178.279 138.434 178.273C138.381 178.263 138.336 178.261 138.302 178.263C138.293 178.268 138.271 178.274 138.235 178.282C138.231 178.286 138.231 178.291 138.236 178.296C138.296 178.293 138.356 178.291 138.416 178.291C138.432 178.291 138.448 178.291 138.466 178.292L138.495 178.293L138.531 178.294L138.585 178.297ZM90.0596 166.096C90.0514 166.096 90.2018 166.107 90.329 166.116C90.2396 166.12 90.1138 166.123 90.0596 166.096ZM207.516 76.3974C207.515 76.3973 207.479 76.3846 207.437 76.3686C207.496 76.3895 207.517 76.3975 207.516 76.3974ZM207.428 76.365C207.395 76.3522 207.359 76.3377 207.335 76.3261L207.327 76.322L207.322 76.3192C207.319 76.3176 207.317 76.3162 207.315 76.3148L207.428 76.365ZM169.291 34.7976C169.297 34.7981 169.331 34.8011 169.379 34.8054C169.309 34.7993 169.285 34.7972 169.291 34.7976ZM101.3 15.9698C101.306 15.9698 101.232 15.9598 101.145 15.9491C101.207 15.9517 101.264 15.9577 101.3 15.9698ZM74.0964 188.061L74.1002 188.072L74.1038 188.082C74.1 188.074 74.0975 188.067 74.0964 188.061ZM74.2127 187.811C74.2136 187.804 74.2186 187.778 74.2257 187.745C74.2153 187.802 74.2117 187.818 74.2127 187.811Z" fill="#0B3A52"/>
<path d="M83.5 112C88.7467 112 93 107.859 93 102.75C93 97.6414 88.7467 93.5 83.5 93.5C78.2533 93.5 74 97.6414 74 102.75C74 107.859 78.2533 112 83.5 112Z" fill="#0B3A52"/>
<path d="M146 103.75C146 108.859 141.859 113 136.75 113C131.641 113 127.5 108.859 127.5 103.75C127.5 98.6414 131.641 94.5 136.75 94.5C141.859 94.5 146 98.6414 146 103.75Z" fill="#0B3A52"/>
</g>
</g>
<defs>
<clipPath id="clip0">
<rect width="256" height="256" fill="white"/>
</clipPath>
</defs>
</svg>
