<svg width="256" height="256" viewBox="0 0 256 256" fill="none" xmlns="http://www.w3.org/2000/svg">
<mask id="mask0" mask-type="alpha" maskUnits="userSpaceOnUse" x="0" y="0" width="256" height="256">
<path d="M128 256C198.692 256 256 198.692 256 128C256 57.3076 198.692 0 128 0C57.3076 0 0 57.3076 0 128C0 198.692 57.3076 256 128 256Z" fill="#F0CEC7"/>
</mask>
<g mask="url(#mask0)">
<path fill-rule="evenodd" clip-rule="evenodd" d="M45.3172 132.117C45.3172 132.117 78.0673 105.689 85.436 94.2171C92.8048 82.7447 105.905 54.0637 105.905 54.0637L114.092 25.7924L117.777 41.3621L123.099 52.8345L125.146 56.9318L129.035 47.0983L133.947 37.2648L136.813 33.1675L136.403 47.508L138.86 58.1609L143.363 73.7306L147.047 82.7447L156.463 91.349L174.066 102.207L190.85 107.943L197.81 109.582L198.219 107.124L201.903 103.436L207.225 103.026L210.5 105.485L210.091 109.992L205.178 114.908L196.172 121.054L174.066 141.541L158.51 171.451L151.96 207.302L154.007 236.803L160.147 255.65L174.885 284.126L187.166 302.154L87.0735 299.286L97.7173 278.8L112.455 236.803L116.549 209.761L114.502 185.996L107.133 165.715L98.1267 153.423L81.7517 141.541L64.5579 134.985L45.3172 132.117Z" fill="#FCF6C4"/>
<path fill-rule="evenodd" clip-rule="evenodd" d="M111.124 24.7475C109.589 33.6181 107.051 42.4068 104.083 50.9087C101.197 59.2057 97.7173 67.3183 93.4188 74.9803C85.5793 88.952 75.304 101.408 63.8824 112.573C57.3528 118.944 50.4344 124.926 43.2908 130.621C42.2059 131.482 42.2673 133.1 43.2908 133.981C43.8629 134.469 44.6105 134.693 45.3519 134.671C45.6238 134.718 45.8816 134.739 46.095 134.739C58.1716 134.678 70.371 137.484 81.0762 143.569C84.4898 145.518 87.7306 147.746 90.7099 150.292C89.2216 150.869 87.7365 151.455 86.2549 152.05C80.8921 154.201 75.5702 156.475 70.2892 158.872C69.3886 159.282 68.3447 160.163 69.2863 161.146C70.1255 161.966 72.07 162.171 73.1344 161.679C79.9119 158.615 86.7734 155.739 93.7091 153.053C94.3514 153.691 94.9783 154.347 95.5885 155.021C99.0477 158.829 102.056 163.049 104.571 167.541C100.668 171.648 96.8806 175.866 93.1938 180.158C92.8813 180.521 92.5666 180.884 92.2509 181.249C88.3073 185.807 84.2033 190.551 82.0997 196.26C81.24 198.596 86.7871 199.149 87.5239 197.141C89.4528 191.892 93.0975 187.631 96.677 183.445L96.8782 183.21C100.121 179.4 103.444 175.655 106.848 171.974C109.563 177.831 111.095 184.009 111.923 190.421C112.844 197.571 113.069 204.803 112.68 212.014C111.923 226.437 108.791 240.613 104.349 254.319C99.9279 267.983 94.2376 281.176 88.2198 294.206L88.2194 294.207C87.4622 295.845 86.7049 297.484 85.9273 299.122C84.8629 301.396 90.4099 302.072 91.3515 300.044C97.5945 286.687 103.612 273.207 108.402 259.276C113.212 245.325 116.774 230.841 118.002 216.091C118.616 208.716 118.636 201.279 117.92 193.904C117.224 186.713 115.914 179.461 113.048 172.803C112.328 171.137 111.543 169.5 110.697 167.897C117.71 160.614 125.094 153.684 132.965 147.338C137.939 143.323 143.097 139.595 148.48 136.132C149.217 135.661 149.606 134.842 148.91 134.125C148.193 133.367 146.72 133.141 145.737 133.367C128.661 137.337 111.847 142.37 95.4171 148.501C93.1546 146.529 90.7519 144.713 88.2198 143.077C77.1052 135.886 64.0666 132.117 50.8847 131.42C50.7433 131.413 50.6018 131.406 50.4604 131.4C62.1279 121.86 73.1276 111.477 82.7341 99.8713C93.6849 86.5961 102.282 71.7639 108.279 55.6206C110.331 50.0972 112.186 44.4514 113.726 38.7302C114.059 39.5885 114.385 40.448 114.711 41.3067C115.838 44.2809 116.962 47.2448 118.37 50.1098C122.239 57.9766 127.192 65.4746 132.78 72.2351C138.102 78.6679 144.304 84.4245 150.854 89.5871C157.241 94.6063 164.139 99.0109 171.425 102.596C179.592 106.611 188.312 109.561 197.277 111.18C197.331 111.189 197.385 111.198 197.439 111.205C198.223 112.059 199.061 112.865 199.896 113.67L199.899 113.672C197.528 115.353 195.224 117.13 193.041 119.067C190.708 121.16 188.433 123.355 186.168 125.541L186.166 125.542C185.749 125.945 185.332 126.348 184.914 126.75C179.879 131.584 175.069 136.808 170.77 142.299C162.358 153.034 156.176 165.53 152.778 178.724C149.217 192.531 148.193 206.974 149.667 221.151C150.404 228.219 151.734 235.225 153.618 242.068C154.559 245.468 155.624 248.849 156.831 252.167C157.445 253.868 158.1 255.548 158.776 257.228C159.022 257.827 159.317 258.458 159.613 259.091C160.055 260.039 160.499 260.99 160.782 261.837C160.809 261.919 160.832 262.073 160.858 262.248C160.891 262.468 160.929 262.72 160.986 262.902C161.079 263.166 161.204 263.421 161.332 263.678C161.402 263.821 161.473 263.965 161.539 264.111C161.734 264.531 161.933 264.956 162.133 265.381C162.332 265.806 162.532 266.231 162.726 266.651C163.463 268.208 164.22 269.765 164.998 271.302C166.656 274.58 168.396 277.796 170.279 280.93C170.608 281.471 170.964 282.006 171.321 282.542C171.896 283.407 172.473 284.273 172.94 285.171C173.759 286.749 174.66 288.203 175.642 289.699C177.607 292.669 179.654 295.599 181.783 298.467C182.806 299.86 183.871 301.253 184.935 302.626C185.815 303.752 187.534 304.019 188.783 303.424C189.929 302.892 190.666 301.499 189.786 300.372C187.678 297.647 185.61 294.882 183.645 292.055C183.307 291.572 182.962 291.089 182.616 290.603C181.033 288.385 179.417 286.12 178.242 283.717C177.73 282.667 177.067 281.667 176.41 280.675L176.408 280.673C176.04 280.117 175.673 279.564 175.335 279.005C174.434 277.509 173.554 275.993 172.715 274.477C171.098 271.527 169.583 268.516 168.15 265.463C167.782 264.685 167.414 263.886 167.045 263.087C166.995 262.981 166.941 262.872 166.887 262.763C166.744 262.474 166.597 262.176 166.493 261.878C166.458 261.784 166.438 261.664 166.415 261.522C166.382 261.326 166.342 261.086 166.247 260.813C165.918 259.813 165.464 258.828 165.011 257.845C164.73 257.237 164.45 256.629 164.2 256.019C162.89 252.803 161.682 249.525 160.618 246.206C158.53 239.712 156.913 233.033 155.91 226.273C153.904 212.629 154.15 198.595 156.975 185.074C159.697 172.004 164.835 159.589 172.51 148.67C174.121 146.37 175.841 144.158 177.635 142.008C180.248 153.97 183.53 165.78 187.453 177.392C188.271 179.83 193.818 179.092 192.877 176.327C188.996 164.838 185.742 153.156 183.143 141.325C192.807 147.171 200.318 156.031 207.553 164.567C208.474 165.674 210.091 166.002 211.401 165.387C212.486 164.875 213.346 163.379 212.404 162.293C203.879 152.239 195.003 141.97 183.115 135.811C183.934 134.929 184.76 134.053 185.59 133.182C187.714 130.967 189.932 128.876 192.162 126.773L192.163 126.773C192.489 126.465 192.816 126.157 193.143 125.848C193.381 125.624 193.619 125.4 193.857 125.177C196.269 122.907 198.643 120.672 201.289 118.657C202.661 117.613 204.094 116.609 205.527 115.625C205.803 115.44 206.002 115.203 206.132 114.94C206.592 114.609 207.06 114.288 207.527 113.968L207.527 113.968L207.528 113.967C208.833 113.073 210.136 112.18 211.258 111.057C213.407 108.906 214.697 105.526 211.892 103.313C209.375 101.326 205.322 101.059 202.272 101.387C199.355 101.707 196.184 103.374 195.597 106.465C181.691 103.402 168.714 97.0097 157.241 88.4399C155.678 87.2736 154.145 86.0716 152.643 84.8345C150.998 83.1104 149.703 81.0379 148.603 78.9547C146.904 75.7178 145.491 72.2966 144.263 68.8549C141.684 61.6436 140.026 54.1251 139.31 46.5042C138.909 42.2481 138.822 37.9723 139.011 33.6961C139.388 32.5634 137.863 31.6602 136.956 31.4671C135.646 31.2008 134.152 31.6105 133.497 32.8397C132.761 34.2097 132.006 35.5698 131.25 36.9298C129.588 39.9218 127.925 42.9139 126.476 46.0125C125.787 47.4882 125.154 48.9918 124.595 50.5233C122.727 46.8313 121.262 43.0341 119.773 39.1733L119.701 38.9856C119.507 38.4774 119.309 37.9697 119.11 37.4618C117.587 33.5678 116.058 29.6596 116.692 25.3826C116.763 24.9088 116.575 24.5107 116.254 24.1924C115.915 23.6501 115.348 23.2484 114.604 23.0676C113.437 22.8013 111.39 23.3135 111.124 24.7475ZM206.632 108.947C205.873 109.754 204.98 110.419 204.057 111.05C203.571 110.571 203.085 110.089 202.6 109.602C202.586 109.589 202.573 109.575 202.559 109.561C202.534 109.536 202.509 109.51 202.484 109.484L202.479 109.478C201.782 108.766 200.955 107.92 201.187 106.837C201.638 104.624 204.258 104.89 205.854 105.177C205.885 105.183 205.917 105.188 205.95 105.193C205.986 105.199 206.023 105.205 206.061 105.211C206.767 105.323 207.62 105.459 207.88 106.017C208.351 107.021 207.266 108.291 206.632 108.947ZM98.3997 151.27C102.17 154.997 105.486 159.182 108.29 163.699C117.079 154.785 126.46 146.467 136.6 139.144C134.633 139.66 132.67 140.192 130.713 140.742C119.798 143.796 109.016 147.311 98.3997 151.27ZM133.476 43.8976C134.086 53.6841 136.192 63.4898 139.85 72.5628C135.679 67.8926 131.9 62.8769 128.581 57.5378C128.56 57.4404 128.528 57.3407 128.482 57.2391L128.481 57.2358C128.481 57.2304 128.482 57.2247 128.482 57.2186C128.482 57.0342 128.502 56.8498 128.523 56.6654C128.564 56.3786 128.625 56.1123 128.707 55.764C128.932 54.8217 129.219 53.8998 129.526 52.9779C130.263 50.7449 131.184 48.5733 132.207 46.4427C132.616 45.587 133.041 44.7394 133.476 43.8976Z" fill="#6D2313"/>
<path d="M145 120.5C148.59 120.5 151.5 117.59 151.5 114C151.5 110.41 148.59 107.5 145 107.5C141.41 107.5 138.5 110.41 138.5 114C138.5 117.59 141.41 120.5 145 120.5Z" fill="#6D2313"/>
</g>
</svg>
