<svg width="1024" height="1024" viewBox="0 0 1024 1024" fill="none" xmlns="http://www.w3.org/2000/svg">
<path fill-rule="evenodd" clip-rule="evenodd" d="M443.5 759.573C632.105 759.573 785 613.713 785 433.786C785 253.86 632.105 108 443.5 108C254.895 108 102 253.86 102 433.786C102 502.842 124.521 566.879 162.939 619.578C183.389 647.63 193.615 661.657 195.65 664.794C220.391 702.923 222.986 714.66 216.683 759.915C216.164 763.638 214.791 770.696 212.045 784.81C211.226 789.019 215.517 792.354 219.304 790.452L240.89 779.61C266.248 766.873 278.927 760.504 289.507 757.235C303.285 752.977 304.005 752.839 318.361 751.719C329.384 750.858 356.723 753.29 411.4 758.153C421.968 759.093 432.675 759.573 443.5 759.573Z" fill="url(#paint0_linear_45_3810)"/>
<defs>
<linearGradient id="paint0_linear_45_3810" x1="443.5" y1="108" x2="443.5" y2="791" gradientUnits="userSpaceOnUse">
<stop stop-color="#FF9029"/>
<stop offset="1" stop-color="#FF3F33"/>
</linearGradient>
</defs>
</svg>
