<svg width="1024" height="1024" viewBox="0 0 1024 1024" fill="none" xmlns="http://www.w3.org/2000/svg">
<path fill-rule="evenodd" clip-rule="evenodd" d="M694 895.064C568.079 895.064 466 797.895 466 678.032C466 558.169 568.079 461 694 461C819.921 461 922 558.169 922 678.032C922 723.983 906.998 766.599 881.401 801.684C857.968 833.802 840.893 872.712 848.529 911.877C849.076 914.681 846.211 916.902 843.683 915.635C829.446 908.5 822.327 904.932 816.918 902.791C795.624 894.366 799.92 895.334 777.104 893.819C771.308 893.434 747.316 893.958 699.331 895.006C697.559 895.045 695.782 895.064 694 895.064Z" fill="url(#paint0_linear_45_3812)"/>
<defs>
<linearGradient id="paint0_linear_45_3812" x1="694" y1="461" x2="694" y2="916" gradientUnits="userSpaceOnUse">
<stop stop-color="#BEDCFF"/>
<stop offset="1" stop-color="#0DB9EF"/>
</linearGradient>
</defs>
</svg>
