<?xml version="1.0" encoding="UTF-8"?><svg id="Layer_1" xmlns="http://www.w3.org/2000/svg" viewBox="0 0 88 88"><defs><style>.cls-1{fill:#e9e9e9;}</style></defs><circle class="cls-1" cx="44" cy="44" r="44"/><path d="M55.7305489,39.6992862v-6.5743008c0-3.1111002-1.2359009-6.0948-3.4357986-8.2946796-2.1999016-2.1999002-5.1836014-3.4357905-8.2947006-3.4357905s-6.0948009,1.2358904-8.2947006,3.4357905c-2.1998997,2.1998796-3.4357986,5.1835794-3.4357986,8.2946796v6.5743008c-1.1154003,.1561985-2.1373005,.7089996-2.8784008,1.5570984-.7411003,.8481007-1.1518002,1.9349003-1.1569996,3.0612011v17.6030006c.0038996,1.2412987,.4986992,2.4306984,1.3764,3.3084984,.8778,.8778,2.0671997,1.3726006,3.3085995,1.3764h22.1617985c1.2413025-.0037994,2.4307022-.4986,3.3085022-1.3764s1.3726006-2.0671997,1.3764-3.3084984v-17.6030006c-.0051003-1.1263008-.4159012-2.2131004-1.1570015-3.0612011-.7411003-.8480988-1.7628975-1.4008999-2.8782997-1.5570984Zm-11.7304993-15.767271c2.4372997,.0026903,4.7739983,.9721003,6.4973984,2.69557,1.7235031,1.7234001,2.6929016,4.0601006,2.6956024,6.4974003v6.5076008h-18.3860016v-6.5076008c.0027008-2.4372997,.9721012-4.7740002,2.6955013-6.4974003,1.7234993-1.7234697,4.0601997-2.6928797,6.4974995-2.69557Zm13.2282982,37.9899712c-.0003967,.5695-.2266998,1.1153984-.6293983,1.5181007-.4025993,.4025993-.9486008,.6289978-1.5180016,.6293983h-22.1617985c-.5693989-.0004005-1.1154003-.226799-1.5181007-.6293983-.4025993-.4027023-.6289988-.9486008-.6293993-1.5181007v-17.6044006c.0008001-.5692997,.2273006-1.1151009,.6299009-1.517601,.4025002-.4025993,.9482994-.6290989,1.5175991-.6299h22.1617985c.5693016,.0008011,1.1151009,.2273006,1.517601,.6299,.4025993,.4025002,.6291008,.9483013,.6297989,1.517601v17.6044006Z"/></svg>