<svg width="1024" height="1024" fill="none" xmlns="http://www.w3.org/2000/svg"><path d="M672 656c42.368 0 68.975 19.297 90.89 35.191l.85.618c21.018 15.239 37.799 27.033 64.26 28.111 14 .57 24 5.9 24 20.08 0 11.046-7.5 20-20 20-42.368 0-68.974-19.297-90.889-35.191l-.851-.618C718.202 708.199 700.811 696 672 696c-28.811 0-46.202 12.199-68.26 28.191l-.85.618C580.975 740.703 554.368 760 512 760c-42.918 0-69.663-19.802-91.74-35.809C398.202 708.199 380.811 696 352 696c-28.811 0-46.202 12.199-68.26 28.191C261.663 740.198 234.918 760 192 760c-12.5 0-20-8.954-20-20 0-14.18 10-19.51 24-20.08 26.461-1.078 43.242-12.872 64.26-28.111C282.337 675.802 309.082 656 352 656c42.918 0 69.663 19.802 91.74 35.809C465.798 707.801 483.189 720 512 720c28.811 0 46.202-12.199 68.26-28.191l.85-.618C603.025 675.297 629.632 656 672 656Zm0-204c42.368 0 68.975 19.297 90.89 35.191l.85.618c21.018 15.239 37.799 27.033 64.26 28.111 14 .57 24 5.9 24 20.08 0 11.046-7.5 20-20 20-42.368 0-68.974-19.297-90.889-35.191l-.851-.618C718.202 504.199 700.811 492 672 492c-28.811 0-46.202 12.199-68.26 28.191l-.85.618C580.975 536.703 554.368 556 512 556c-42.918 0-69.663-19.802-91.74-35.809C398.202 504.199 380.811 492 352 492c-28.811 0-46.202 12.199-68.26 28.191C261.663 536.198 234.918 556 192 556c-12.5 0-20-8.954-20-20 0-14.18 10-19.51 24-20.08 26.461-1.078 43.242-12.872 64.26-28.111C282.337 471.802 309.082 452 352 452c42.918 0 69.663 19.802 91.74 35.809C465.798 503.801 483.189 516 512 516c28.811 0 46.202-12.199 68.26-28.191l.85-.618C603.025 471.297 629.632 452 672 452Zm0-204c42.368 0 68.975 19.297 90.89 35.191l.85.618c21.018 15.239 37.799 27.033 64.26 28.111 14 .57 24 5.9 24 20.08 0 11.046-7.5 20-20 20-42.368 0-68.974-19.297-90.889-35.191l-.851-.618C718.202 300.199 700.811 288 672 288c-28.811 0-46.202 12.199-68.26 28.191l-.85.618C580.975 332.703 554.368 352 512 352c-42.918 0-69.663-19.802-91.74-35.809C398.202 300.199 380.811 288 352 288c-28.811 0-46.202 12.199-68.26 28.191C261.663 332.198 234.918 352 192 352c-12.5 0-20-8.954-20-20 0-14.18 10-19.51 24-20.08 26.461-1.078 43.242-12.872 64.26-28.111C282.337 267.802 309.082 248 352 248c42.918 0 69.663 19.802 91.74 35.809C465.798 299.801 483.189 312 512 312c28.811 0 46.202-12.199 68.26-28.191l.85-.618C603.025 267.297 629.632 248 672 248Z" fill="#fff"/></svg>