<svg width="64" height="64" viewBox="0 0 64 64" fill="none" xmlns="http://www.w3.org/2000/svg">
<path d="M32.5879 13.1202L24.1589 9.50781L18.7403 10.1099L11.5155 15.5285L8.50517 22.7533L12.1176 32.9885L13.3217 42.0195L20.5465 38.4071H25.9651L34.3941 35.3967L38.6086 28.1719L36.8024 20.345L32.5879 13.1202Z" fill="#D2D8FE" stroke="#3B45FD" style="fill:#D2D8FE;fill:color(display-p3 0.8235 0.8471 0.9961);fill-opacity:1;stroke:#3B45FD;stroke:color(display-p3 0.2314 0.2706 0.9922);stroke-opacity:1;" stroke-width="1.20414"/>
<path d="M23.5566 8.60938C32.3651 8.60947 39.5066 15.75 39.5068 24.5586C39.5068 33.3672 32.3653 40.5087 23.5566 40.5088C22.4441 40.5088 21.3577 40.3924 20.3086 40.1748L14.9766 43.8828C13.098 45.1883 10.5476 43.7162 10.7383 41.4365L11.2979 34.7598C8.99527 31.9953 7.60745 28.4373 7.60742 24.5586C7.60767 15.7502 14.7483 8.60962 23.5566 8.60938ZM23.5566 11.6094C16.4051 11.6096 10.6076 17.407 10.6074 24.5586C10.6074 27.736 11.75 30.643 13.6484 32.8965C14.1004 33.433 14.3602 34.1473 14.2969 34.9033L13.7803 41.0596L18.6904 37.6475L18.8135 37.5664C19.3558 37.2316 19.9793 37.1114 20.5732 37.1787L20.8447 37.2236L21.1738 37.2891C21.9457 37.433 22.7421 37.5088 23.5566 37.5088C30.7084 37.5087 36.5068 31.7104 36.5068 24.5586C36.5066 17.407 30.7084 11.6095 23.5566 11.6094Z" fill="#3B45FD" style="fill:#3B45FD;fill:color(display-p3 0.2314 0.2706 0.9922);fill-opacity:1;"/>
<path d="M48.2417 23.3521L42.221 22.75H36.2003L32.5879 25.7603L28.9755 31.179V38.4038L32.5879 46.8327L42.8231 51.0472L48.8437 52.2513L53.6603 54.0575L54.2623 51.0472L55.4665 44.4244L56.6706 35.3934L54.8644 28.1686L48.2417 23.3521Z" fill="#D2D8FE" style="fill:#D2D8FE;fill:color(display-p3 0.8235 0.8471 0.9961);fill-opacity:1;"/>
<path d="M42.8235 22.1484V20.6484H42.8235L42.8235 22.1484ZM28.3733 36.5977H26.8733V36.5976L28.3733 36.5977ZM42.8235 51.0479L42.8235 52.5479H42.8235V51.0479ZM57.2727 36.5977L58.7727 36.5976V36.5977H57.2727ZM53.9035 45.8722L52.7538 44.9089L53.9035 45.8722ZM52.3026 54.8453L53.1587 53.6136L52.3026 54.8453ZM45.7203 50.7559L45.4206 49.2862L45.7203 50.7559ZM46.6943 50.9471L45.8382 52.1788L46.6943 50.9471ZM42.8235 22.1484V23.6484C35.6716 23.6484 29.8735 29.4461 29.8733 36.5977L28.3733 36.5977L26.8733 36.5976C26.8735 27.789 34.015 20.6484 42.8235 20.6484V22.1484ZM28.3733 36.5977H29.8733C29.8733 43.7495 35.6716 49.5479 42.8235 49.5479V51.0479V52.5479C34.0147 52.5479 26.8733 45.4064 26.8733 36.5977H28.3733ZM42.8235 51.0479L42.8234 49.5479C43.7136 49.5478 44.5818 49.4572 45.4206 49.2862L45.7203 50.7559L46.02 52.2257C44.9869 52.4363 43.9179 52.5478 42.8235 52.5479L42.8235 51.0479ZM46.6943 50.9471L47.5505 49.7154L53.1587 53.6136L52.3026 54.8453L51.4465 56.077L45.8382 52.1788L46.6943 50.9471ZM54.1898 53.756L52.695 53.8813L52.1105 46.9103L53.6053 46.785L55.1001 46.6596L55.6845 53.6306L54.1898 53.756ZM53.9035 45.8722L52.7538 44.9089C54.6388 42.6591 55.7727 39.7626 55.7727 36.5977H57.2727H58.7727C58.7727 40.4932 57.3739 44.0661 55.0533 46.8356L53.9035 45.8722ZM57.2727 36.5977L55.7727 36.5977C55.7725 29.4461 49.975 23.6486 42.8234 23.6484L42.8235 22.1484L42.8235 20.6484C51.6319 20.6487 58.7724 27.7892 58.7727 36.5976L57.2727 36.5977ZM53.6053 46.785L52.1105 46.9103C52.0474 46.1568 52.3048 45.4448 52.7538 44.9089L53.9035 45.8722L55.0533 46.8356C55.0752 46.8095 55.1077 46.7504 55.1001 46.6596L53.6053 46.785ZM52.3026 54.8453L53.1587 53.6136C52.9531 53.4707 52.6741 53.6318 52.695 53.8813L54.1898 53.756L55.6845 53.6306C55.8757 55.9106 53.3252 57.3829 51.4465 56.077L52.3026 54.8453ZM45.7203 50.7559L45.4206 49.2862C46.1303 49.1414 46.9067 49.2679 47.5505 49.7154L46.6943 50.9471L45.8382 52.1788C45.9158 52.2327 45.9858 52.2326 46.02 52.2257L45.7203 50.7559Z" fill="#3B45FD" style="fill:#3B45FD;fill:color(display-p3 0.2314 0.2706 0.9922);fill-opacity:1;"/>
</svg>
