<?xml version="1.0" encoding="UTF-8"?>
<svg width="66px" height="66px" viewBox="0 0 66 66" version="1.1" xmlns="http://www.w3.org/2000/svg" xmlns:xlink="http://www.w3.org/1999/xlink">
    <!-- Generator: Sketch 55.1 (78136) - https://sketchapp.com -->
    <title>Slice</title>
    <desc>Created with Sketch.</desc>
    <defs>
        <path d="M33,66 C51.2254,66 66,51.2254 66,33 C66,14.7746 51.2254,0 33,0 C14.7746,0 0,14.7746 0,33 C0,51.2254 14.7746,66 33,66 Z" id="path-1"></path>
    </defs>
    <g id="Page-1" stroke="none" stroke-width="1" fill="none" fill-rule="evenodd">
        <g id="Frame">
            <g id="Clipped">
                <mask id="mask-2" fill="white">
                    <use xlink:href="#path-1"></use>
                </mask>
                <g id="Path"></g>
                <g id="Group" mask="url(#mask-2)" fill-rule="nonzero">
                    <g transform="translate(11.000000, 5.000000)" id="Path">
                        <path d="M1.5255,28.6837 C0.6198,27.0756 4.596,24.874 8.2733,18.1968 C9.8448,15.343 10.8774,12.548 12.0095,9.4767 C12.7975,7.343 13.1961,6.2468 13.4542,4.76097 C13.7124,3.27515 13.7124,2.3465 13.9343,2.28761 C15.0347,1.99317 17.6976,10.6227 17.6976,10.6227 L21.8912,9.4721 C21.8912,9.4721 21.2165,11.2886 22.6113,11.4789 C21.2572,11.2932 26.2434,10.6635 24.056,11.4789 C24.45,11.3339 24.844,11.0123 25.5007,9.7122 C26.0169,8.6839 26.035,8.3623 26.583,7.0033 C26.9227,6.1607 27.2397,5.3816 27.7877,4.41217 C28.1771,3.72361 28.2315,3.73267 28.87,2.64548 C29.6173,1.37256 29.6897,1.1053 29.8347,1.11414032 C30.3509,1.14607 30.1426,4.62507 30.677,8.0678 C31.551,13.6941 34.1732,17.7167 36.0979,20.6792 C37.6377,23.0439 38.5298,24.3802 40.3141,25.6305 C43.1038,27.5784 45.7894,27.7052 45.735,28.3394 C45.6716,29.1095 41.7407,28.6792 36.9402,30.5772 C34.54,31.524 32.1624,32.4662 30.917,34.704 C29.7441,36.8104 30.6861,39.0029 30.7947,42.8353 C30.9215,47.2158 32.253,50.799 31.9994,51.2021 C31.7367,51.6234 30.9306,51.0028 30.6725,51.3199 C30.2105,51.8861 31.7548,53.911 31.7548,53.911 C31.7548,53.911 31.4288,53.1726 31.1525,53.2044 C30.8581,53.2361 30.6272,54.1239 30.6725,54.8533 C30.7495,56.0673 31.5737,56.5792 32.8417,58.1511 C34.0962,59.7094 34.9657,60.7875 35.1287,62.2779 C35.3054,63.8362 34.6261,65.0729 34.4041,65.4579 C34.0056,66.16 33.3218,67.5009 31.2703,68.1668 C27.3348,69.4488 17.4893,70.5858 13.8029,68.049 C12.399,67.0842 10.0667,67.5553 9.3467,66.1646 C8.7307,64.9823 9.2787,63.4104 9.5867,62.5134 C10.2841,60.4976 10.9317,60.4885 11.3936,59.0978 C12.8157,54.8216 12.0322,54.4818 10.7913,54.6177 C10.4471,54.6539 11.7786,55.048 11.8737,54.7355 C12.0775,54.0877 12.9606,55.3833 12.5983,55.7955 C11.4797,57.0639 10.506,53.5215 11.6337,52.2621 C11.6608,50.6404 12.4805,49.0323 12.716,49.0821 C12.8428,49.1093 12.9244,49.6257 12.716,49.7888 C12.4171,50.0243 11.4163,49.6166 11.1491,48.9643 C10.9227,48.4162 11.3121,47.9315 11.8737,46.8443 C11.9326,46.7356 12.8564,44.91 13.3184,43.0754 C13.5855,42.0108 13.3999,42.1241 13.7984,40.0131 C14.043,38.7357 14.1199,38.6315 14.2784,37.6575 C14.5773,35.8229 14.5185,34.9486 14.4007,34.3597 C14.0384,34.7131 12.861,33.7119 10.9091,32.8286 C9.3874,32.14 9.2063,31.6372 7.8975,30.8264 C4.5371,28.7199 2.2139,29.8977 1.5255,28.6837 Z" fill="#EF9364"></path>
                        <path d="M0.9232,29.8841 C1.4712,29.9611 2.0147,30.0472 2.5536,30.1514 C2.6759,30.174 2.7936,30.2012 2.9159,30.2239 C2.9838,30.2375 3.0518,30.251 3.1152,30.2646 C3.0835,30.2556 2.8932,30.2148 3.0835,30.2601 C3.3507,30.319 3.6133,30.3824 3.876,30.4504 C4.8904,30.704 5.8913,31.0166 6.8785,31.3745 C7.114,31.4605 7.3495,31.5511 7.585,31.6417 C7.6303,31.6599 7.7979,31.7278 7.6122,31.6508 C7.662,31.6689 7.7118,31.6916 7.7571,31.7097 C7.902,31.7686 8.0469,31.8275 8.1919,31.8909 C8.6447,32.0857 9.0976,32.2895 9.5414,32.5024 C10.4653,32.9464 11.362,33.4401 12.236,33.9701 C12.4579,34.106 12.6753,34.2419 12.8882,34.3778 C12.9923,34.4413 13.092,34.5092 13.1916,34.5772 C13.178,34.5681 13.3954,34.7131 13.3048,34.6496 C13.2595,34.6225 13.2776,34.6315 13.3501,34.6814 C13.3954,34.7131 13.4407,34.7402 13.4814,34.772 C13.8981,35.0573 14.3057,35.3518 14.7087,35.6508 C15.5194,36.2578 16.3028,36.901 17.0591,37.576 C17.8018,38.2374 18.5174,38.9259 19.2058,39.6371 C19.9439,40.4027 20.5915,41.1184 21.1667,41.9972 C21.7147,42.8398 22.1449,43.773 22.2264,44.7832 C22.2672,45.2588 22.24,45.7707 22.0996,46.2192 C22.0362,46.423 21.9683,46.6722 21.8324,46.8443 C21.9094,46.7446 21.8415,46.8216 21.8188,46.8398 C21.9502,46.7265 22.1223,46.6948 22.2853,46.6812 C22.4212,46.6676 22.557,46.6676 22.6883,46.7084 C22.8061,46.7628 22.8333,46.7718 22.7699,46.7401 C22.7155,46.7129 22.7336,46.722 22.8197,46.7809 C22.8152,46.7854 22.7291,46.7039 22.7246,46.6903 C22.8016,46.7899 22.6929,46.5997 22.6929,46.5951 C22.6883,46.5906 22.6476,46.4864 22.6702,46.5589 C22.6521,46.5091 22.6476,46.4502 22.6431,46.3958 C22.6068,46.1422 22.5978,45.8839 22.6068,45.6303 C22.6249,45.1456 22.7201,44.6744 22.874,44.2214 C23.2137,43.2203 23.7571,42.2962 24.3368,41.4174 C24.844,40.6428 25.3965,39.8908 25.9807,39.1705 C25.9219,39.243 25.9989,39.1524 26.0034,39.1434 C26.0487,39.089 26.0985,39.0301 26.1438,38.9758 C26.2072,38.9033 26.2706,38.8263 26.334,38.7538 C26.5015,38.559 26.6736,38.3687 26.8457,38.1785 C27.1718,37.8206 27.5069,37.4718 27.8511,37.1366 C28.5576,36.4435 29.3003,35.7867 30.0792,35.1751 C30.4778,34.858 30.8854,34.5545 31.302,34.2646 C31.3971,34.1966 31.4967,34.1287 31.5964,34.0607 C31.5828,34.0698 31.7956,33.9248 31.7051,33.9883 C31.6145,34.0517 31.8319,33.9067 31.8137,33.9158 C32.0357,33.7708 32.2576,33.6259 32.484,33.49 C33.3082,32.9826 34.1596,32.5206 35.0292,32.0993 C35.4639,31.8909 35.9032,31.6916 36.3515,31.5013 C36.4693,31.4515 36.587,31.4017 36.7093,31.3518 C36.7591,31.3337 36.8044,31.3111 36.8542,31.2929 C36.6369,31.379 36.8814,31.2839 36.9131,31.2703 C37.1531,31.1752 37.3977,31.0846 37.6422,30.9985 C38.6069,30.6497 39.5896,30.3552 40.5859,30.1061 C40.8169,30.0472 41.0524,29.9928 41.2879,29.943 C41.546,29.8841 41.1294,29.9747 41.2924,29.943 C41.3558,29.9294 41.4237,29.9158 41.4871,29.9022 C41.6185,29.8751 41.7498,29.8479 41.8811,29.8252 C42.411,29.7256 42.9408,29.635 43.4752,29.5625 C43.987,29.4945 44.4987,29.4357 45.015,29.3949 C45.332,29.3677 46.0204,29.1095 45.8075,28.6746 C45.5856,28.2262 44.8157,28.2307 44.4127,28.2669 C40.0062,28.6384 35.6315,29.9611 31.7775,32.14 C28.1228,34.2057 24.9572,37.0686 22.557,40.525 C21.9366,41.4174 21.3433,42.346 20.9131,43.3517 C20.501,44.3211 20.1885,45.4808 20.4104,46.5363 C20.4783,46.8488 20.5734,47.0844 20.8089,47.3154 C21.0897,47.5963 21.5109,47.7322 21.8913,47.8001 C22.6521,47.9405 23.6847,47.8092 24.0923,47.0572 C24.3413,46.5951 24.4636,46.0153 24.5044,45.4944 C24.5497,44.9145 24.4636,44.3392 24.3142,43.7775 C23.7435,41.6303 22.0589,39.918 20.5236,38.4004 C19.011,36.9056 17.3852,35.533 15.6416,34.3235 C11.8828,31.7188 7.6439,29.9022 3.1514,29.028 C2.6079,28.9238 2.0645,28.8332 1.521,28.7607 C1.2403,28.7199 0.9232,28.7335 0.647,28.8196 C0.4704,28.8739 0.2168,28.9872 0.1262,29.1684 C-0.0912,29.6123 0.6289,29.8434 0.9232,29.8841 Z" fill="#672402"></path>
                        <path d="M1.5935,29.5036 C4.1341,26.3825 6.3713,23.0122 8.2734,19.4652 C10.1528,15.9591 11.7016,12.2717 12.8836,8.471 C13.5539,6.3238 14.1019,4.1404 14.5366,1.93431 C14.6,1.60815 14.36,1.38166 14.043,1.33183 C13.7984,1.29106 13.2369,1.34089 13.1735,1.67157 C12.4036,5.5809 11.2623,9.4133 9.7679,13.1007 C8.287,16.7563 6.4619,20.2806 4.3153,23.592 C3.097,25.4674 1.7792,27.2749 0.3707,29.0099 C0.1579,29.2726 0.3526,29.5671 0.6243,29.6803 C0.9232,29.8026 1.3761,29.7709 1.5935,29.5036 Z" fill="#672402"></path>
                        <path d="M13.2642,34.242 C13.314,37.3088 12.9382,40.3756 12.1411,43.3381 C11.7426,44.824 11.2399,46.2781 10.6285,47.6914 C10.5108,47.9632 10.3341,48.2622 10.316,48.5657 C10.2979,48.9462 10.6194,49.1229 10.9546,49.1863 C11.104,49.2135 11.258,49.2271 11.4074,49.2271 C11.4663,49.2271 11.6973,49.2543 11.729,49.2135 C11.7018,49.2452 11.3803,49.1773 11.3803,49.1727 C11.3803,49.1863 11.4482,49.2497 11.4663,49.2724 C11.5886,49.4672 11.575,49.748 11.5478,49.9609 C11.5025,50.3188 11.3576,50.654 11.2354,50.9938 C11.0859,51.4151 10.9319,51.8364 10.7825,52.2576 C10.4655,53.141 10.1485,54.0243 9.8314,54.9077 C9.7862,55.03 10.1303,55.107 10.1802,55.1206 C10.4111,55.1704 10.6647,55.1704 10.8957,55.1206 C10.95,55.107 11.0089,55.0979 11.0678,55.0843 C11.2535,55.0481 10.941,55.0889 11.1357,55.0753 C11.1765,55.0707 11.2172,55.0662 11.258,55.0662 C11.0859,55.0798 11.2806,55.0707 11.3078,55.0707 C11.1176,55.0617 11.3848,55.1251 11.2354,55.0707 C11.2082,55.0617 11.1538,55.03 11.2489,55.0753 C11.3033,55.1025 11.3622,55.1342 11.4256,55.2112 C11.7788,55.637 11.3757,56.389 11.2172,56.8193 C10.7915,57.9744 10.3251,59.1115 9.8903,60.2666 C9.4601,61.4127 9.0616,62.5769 8.7808,63.7728 C8.6585,64.3028 8.5091,64.869 8.5498,65.4172 C8.5906,65.9653 8.8804,66.3821 9.3559,66.6493 C9.8903,66.9483 10.4926,67.1521 11.0542,67.3877 C11.6429,67.6323 12.2317,67.8679 12.8249,68.0989 C14.0024,68.5519 15.1935,68.9551 16.4162,69.2722 C18.9161,69.92 21.4975,70.0785 24.0562,69.7388 C26.9229,69.3537 29.6809,68.4477 32.3438,67.3424 C32.4072,67.3152 32.5521,67.2654 32.5521,67.1703 C32.5521,67.0797 32.4072,67.0208 32.3438,66.9981 C32.063,66.8939 31.6282,66.8804 31.3429,66.9981 C29.0469,67.954 26.6829,68.7739 24.2238,69.1861 C23.0327,69.3854 21.9141,69.467 20.7185,69.4217 C20.2204,69.4035 19.5682,69.3401 19.0202,69.254 C18.4134,69.1544 17.8111,69.0275 17.2133,68.8735 C16.0358,68.57 14.8855,68.1669 13.7488,67.7275 C13.1691,67.5055 12.594,67.2699 12.0188,67.0298 C11.5025,66.8169 10.9274,66.6403 10.4564,66.3368 C10.0035,66.0378 9.9311,65.5078 9.9718,65.0049 C10.0217,64.4296 10.1711,63.8543 10.316,63.2926 C10.624,62.1058 11.0406,60.9506 11.4799,59.8046 C11.7245,59.1658 11.9781,58.5271 12.2271,57.8884 C12.4672,57.2632 12.7525,56.629 12.92,55.9813 C13.314,54.432 11.1221,54.5045 10.1802,54.7083 C10.5334,54.7808 10.8912,54.8488 11.2444,54.9213 C11.5207,54.1512 11.7969,53.3765 12.0732,52.6064 C12.3404,51.859 12.6438,51.1161 12.8748,50.3596 C13.0061,49.9247 13.0695,49.3132 12.6755,48.9961 C12.3404,48.7288 11.8286,48.7197 11.421,48.7514 C11.1674,48.7696 11.7969,48.8013 11.8014,48.8285 C11.8014,48.8058 11.7562,48.7922 11.7562,48.765 C11.7471,48.7107 11.729,48.6608 11.729,48.602 C11.729,48.4661 11.7743,48.3347 11.8241,48.2124 C12.4128,46.7945 12.9699,45.3857 13.3956,43.9089 C13.8213,42.4367 14.1428,40.9327 14.3557,39.4152 C14.6002,37.7029 14.7044,35.977 14.6772,34.2465 C14.6772,33.8886 13.2597,33.8932 13.2642,34.242 Z" fill="#672402"></path>
                        <path d="M29.957,33.934 C29.3049,38.4368 29.4226,43.0392 30.3103,47.5012 C30.5593,48.756 30.8718,49.9927 31.2387,51.2158 C31.6417,51.1569 32.0448,51.1025 32.4478,51.0436 C31.8817,50.867 31.3428,50.6405 30.822,50.3551 C30.5684,50.2146 30.2152,50.2146 29.9389,50.2554 C29.7985,50.2781 29.4362,50.3324 29.5313,50.5408 C30.0159,51.628 30.4552,52.7333 30.8537,53.8522 C31.3156,53.8296 31.7821,53.8114 32.244,53.7888 C31.9904,53.449 31.456,53.4219 31.0711,53.4536 C30.7043,53.4853 30.3284,53.5895 30.1155,53.9156 C29.9616,54.1557 29.9389,54.4184 30.0748,54.6721 C30.2378,54.9711 30.4642,55.2565 30.659,55.5328 C31.4062,56.5974 32.2123,57.6257 32.8237,58.7808 C33.9423,60.8963 34.4541,63.655 33.0049,65.7388 C32.6788,66.2099 32.2712,66.6312 31.7912,66.9392 C31.5647,67.0842 31.3247,67.211 31.0711,67.3016 C30.7994,67.3968 30.6273,67.4285 30.3963,67.4466 C30.2786,67.4557 29.7668,67.5236 29.9027,67.7456 C30.034,67.9585 30.5775,67.9313 30.7722,67.9132 C31.8817,67.8226 32.9098,67.3877 33.7204,66.6221 C34.4541,65.9291 34.9613,65.0004 35.1922,64.0174 C35.464,62.8578 35.2964,61.6301 34.9522,60.5067 C34.5809,59.2791 33.9785,58.1738 33.2539,57.1228 C32.8554,56.5385 32.4342,55.9767 32.0267,55.3969 C31.8365,55.1251 31.5828,54.8352 31.4425,54.5362 C31.3745,54.3958 31.3791,54.2327 31.447,54.0923 C31.4787,54.0289 31.524,53.9881 31.5602,53.9292 C31.6191,53.893 31.6281,53.8749 31.5828,53.8839 C30.9126,53.6665 30.6771,53.6755 30.8764,53.9111 C31.0485,54.1467 32.3618,54.1149 32.2667,53.8477 C31.8546,52.6835 31.3972,51.5329 30.8945,50.4049 C30.4642,50.4683 30.034,50.5272 29.5993,50.5906 C30.188,50.9123 30.8084,51.1795 31.447,51.3788 C31.6915,51.4559 31.9678,51.4694 32.2214,51.4287 C32.2893,51.4196 32.7014,51.3517 32.6562,51.2067 C31.3519,46.8625 30.7903,42.2963 31.0077,37.7663 C31.0711,36.4798 31.1934,35.1978 31.3791,33.9249 C31.4153,33.6395 30.0159,33.5489 29.957,33.934 Z" fill="#672402"></path>
                        <path d="M17.2305,25.5508 C18.156,25.5508 18.9062,24.8005 18.9062,23.875 C18.9062,22.9495 18.156,22.1992 17.2305,22.1992 C16.305,22.1992 15.5547,22.9495 15.5547,23.875 C15.5547,24.8005 16.305,25.5508 17.2305,25.5508 Z" fill="#672402"></path>
                        <path d="M25.8672,25.5508 C26.7927,25.5508 27.543,24.8005 27.543,23.875 C27.543,22.9495 26.7927,22.1992 25.8672,22.1992 C24.9417,22.1992 24.1914,22.9495 24.1914,23.875 C24.1914,24.8005 24.9417,25.5508 25.8672,25.5508 Z" fill="#672402"></path>
                        <path d="M29.1733,0.61153 C28.4895,5.3589 30.3009,10.0248 32.0626,14.3373 C33.7201,18.3962 35.6766,22.4459 38.8829,25.5218 C40.5585,27.1254 42.5376,28.3892 44.7386,29.1276 C45.0194,29.2228 45.4722,29.2092 45.7077,29.0098 C45.9613,28.7969 45.6443,28.6203 45.4541,28.5569 C41.659,27.2839 38.7153,24.1764 36.6593,20.8197 C35.4999,18.9216 34.5625,16.8967 33.7066,14.8492 C32.8144,12.7111 31.9404,10.5457 31.3063,8.317 C30.5953,5.821 30.2104,3.20267 30.5863,0.61606 C30.627,0.34427 30.0428,0.28085 29.8798,0.285158449 C29.6579,0.285158449 29.2141,0.32162 29.1733,0.61153 Z" fill="#672402"></path>
                        <path d="M13.3276,1.80744 C14.4145,4.9467 15.6599,8.0316 17.0547,11.0486 C17.1951,11.3475 17.6389,11.4019 17.9242,11.3521 C18.1552,11.3113 18.5582,11.121 18.4178,10.8175 C17.023,7.8006 15.7776,4.71567 14.6907,1.57641 C14.5096,1.05094 13.1102,1.18683 13.3276,1.80744 Z" fill="#672402"></path>
                        <path d="M18.4768,11.4019 C19.8581,10.4506 21.5383,10.1562 23.1188,9.8662 C22.8516,9.6896 22.5844,9.5174 22.3217,9.3408 C21.6424,9.9387 20.9858,10.5593 20.3472,11.2026 C19.9894,11.565 20.714,11.7416 20.9586,11.7416 C22.3036,11.7416 23.6486,11.6782 24.9937,11.5604 C25.1839,11.5423 25.6232,11.3883 25.4873,11.121 C25.3469,10.8447 24.8669,10.8492 24.6178,10.8719 C23.4177,10.9761 22.1904,11.0304 20.9631,11.0259 C21.1669,11.2071 21.3707,11.3838 21.5745,11.565 C22.2085,10.9217 22.8697,10.3011 23.549,9.7032 C23.6985,9.5718 23.6441,9.4087 23.4947,9.3045 C23.2954,9.1686 22.9829,9.1324 22.752,9.1777 C20.8272,9.522 18.8844,9.9115 17.2541,11.0395 C16.9824,11.2298 17.3265,11.4744 17.5077,11.5287 C17.8247,11.6239 18.2006,11.5921 18.4768,11.4019 Z" fill="#672402"></path>
                        <path d="M25.7995,11.2388 C26.9906,8.4846 28.1545,5.7168 29.3772,2.98073 C29.7078,2.23782 30.0611,1.50849 30.4822,0.81541 C30.6498,0.53908 30.1834,0.33976 29.9886,0.31258 C29.6897,0.27181 29.2912,0.31258 29.1191,0.59797 C28.3809,1.82559 27.842,3.16193 27.2714,4.47108 C26.669,5.8573 26.0713,7.2479 25.4689,8.6341 C25.1247,9.4314 24.7806,10.2287 24.4364,11.0259 C24.1918,11.5831 25.5867,11.7281 25.7995,11.2388 Z" fill="#672402"></path>
                    </g>
                </g>
            </g>
        </g>
    </g>
</svg>