<svg width="64" height="64" viewBox="0 0 64 64" fill="none" xmlns="http://www.w3.org/2000/svg">
<rect x="9.70037" y="16.2812" width="33" height="28" rx="4" transform="rotate(-10.6314 9.70037 16.2812)" fill="#E7EBFF" style="fill:#E7EBFF;fill:color(display-p3 0.9071 0.9197 1.0000);fill-opacity:1;"/>
<rect x="20" y="23" width="33" height="28" rx="4" fill="#D2D8FE" style="fill:#D2D8FE;fill:color(display-p3 0.8235 0.8471 0.9961);fill-opacity:1;"/>
<path d="M29.8335 28.4771C27.889 28.4771 26.3127 30.0534 26.3127 31.9979C26.3127 33.9424 27.889 35.5188 29.8335 35.5188C31.778 35.5188 33.3544 33.9424 33.3544 31.9979C33.3544 30.0534 31.778 28.4771 29.8335 28.4771Z" fill="#3B45FD" style="fill:#3B45FD;fill:color(display-p3 0.2314 0.2706 0.9922);fill-opacity:1;"/>
<path fill-rule="evenodd" clip-rule="evenodd" d="M46.3533 19.7275L46.6143 21.7106C47.3993 21.7176 48.0878 21.7363 48.6902 21.7855C49.6939 21.8675 50.6004 22.0424 51.4471 22.4738C52.772 23.1489 53.8493 24.2261 54.5244 25.5511C54.9557 26.3977 55.1307 27.3042 55.2127 28.308C55.2919 29.2776 55.2919 30.4708 55.2919 31.9297V41.816C55.2919 43.2749 55.2919 44.4682 55.2127 45.4379C55.1307 46.4417 54.9557 47.3482 54.5244 48.1948C53.8493 49.5198 52.772 50.597 51.447 51.2721C50.6004 51.7035 49.6939 51.8784 48.6902 51.9604C47.7205 52.0396 46.5273 52.0396 45.0684 52.0396H27.5989C26.1399 52.0396 24.9466 52.0396 23.9769 51.9604C22.9731 51.8784 22.0666 51.7035 21.22 51.2721C19.895 50.597 18.8178 49.5198 18.1427 48.1948C17.7113 47.3482 17.5364 46.4417 17.4544 45.4379C17.3901 44.6513 17.378 43.7175 17.3757 42.6141C16.5247 42.6301 15.7307 42.5518 14.9562 42.2775C13.5544 41.7811 12.3458 40.8537 11.5035 39.6282C10.9653 38.8451 10.6736 37.9692 10.4613 36.9848C10.2561 36.0337 10.1004 34.8507 9.90999 33.4042L8.76098 24.6766C8.57053 23.2301 8.41477 22.0472 8.36675 21.0754C8.31704 20.0696 8.37215 19.1479 8.68932 18.2523C9.18571 16.8505 10.1131 15.6419 11.3386 14.7996C12.1217 14.2614 12.9976 13.9697 13.9821 13.7574C14.9332 13.5522 16.1162 13.3965 17.5627 13.2061L34.8827 10.9259C36.3292 10.7354 37.5122 10.5796 38.484 10.5316C39.4898 10.4819 40.4114 10.537 41.3071 10.8542C42.7088 11.3506 43.9175 12.278 44.7597 13.5035C45.2979 14.2866 45.5897 15.1625 45.802 16.147C46.0071 17.098 46.1628 18.281 46.3533 19.7275ZM17.3752 39.3633C16.7218 39.3799 16.3363 39.3185 16.041 39.2139C15.2863 38.9466 14.6355 38.4473 14.1819 37.7874C13.9835 37.4987 13.808 37.0869 13.6382 36.2996C13.4644 35.4936 13.3248 34.4429 13.1233 32.9125L11.9921 24.3199C11.7906 22.7895 11.6535 21.7384 11.6128 20.915C11.573 20.1105 11.636 19.6673 11.7529 19.3372C12.0202 18.5824 12.5196 17.9316 13.1795 17.478C13.4681 17.2796 13.88 17.1041 14.6673 16.9343C15.4732 16.7605 16.524 16.6209 18.0544 16.4194L35.2394 14.1569C36.7698 13.9555 37.8209 13.8184 38.6444 13.7777C39.4488 13.7379 39.892 13.8009 40.2222 13.9178C40.977 14.1851 41.6278 14.6844 42.0813 15.3443C42.2797 15.633 42.4552 16.0448 42.625 16.8321C42.7989 17.6381 42.9385 18.6888 43.14 20.2192L43.3357 21.7063L27.5988 21.7063C26.1399 21.7063 24.9466 21.7062 23.9769 21.7855C22.9731 21.8675 22.0666 22.0424 21.22 22.4738C19.895 23.1489 18.8178 24.2261 18.1427 25.5511C17.7113 26.3977 17.5364 27.3042 17.4544 28.308C17.3752 29.2777 17.3752 30.4709 17.3752 31.9298L17.3752 39.3633ZM51.6286 27.0266C51.7876 27.3386 51.9079 27.7699 51.9735 28.5726C52.0406 29.3943 52.0419 30.4543 52.0419 31.9979V41.2025L45.0991 35.2515C43.172 33.5998 40.3284 33.5998 38.4013 35.2515L31.3231 41.3186L29.5799 39.8244C27.8557 38.3465 25.3114 38.3465 23.5872 39.8244L20.6254 42.363C20.6252 42.1669 20.6252 41.9621 20.6252 41.7479L20.6252 31.9979C20.6252 30.4543 20.6265 29.3943 20.6936 28.5726C20.7592 27.7699 20.8795 27.3386 21.0385 27.0266C21.402 26.3131 21.982 25.7331 22.6955 25.3695C23.0076 25.2105 23.4388 25.0903 24.2415 25.0247C25.0633 24.9575 26.1232 24.9563 27.6669 24.9563L45.0002 24.9563C46.5438 24.9563 47.6038 24.9575 48.4255 25.0247C49.2283 25.0903 49.6595 25.2105 49.9716 25.3695C50.685 25.7331 51.2651 26.3131 51.6286 27.0266ZM20.7679 45.808C20.8357 46.2266 20.9277 46.5019 21.0385 46.7193C21.402 47.4328 21.982 48.0128 22.6955 48.3764C23.0076 48.5354 23.4388 48.6556 24.2415 48.7212C25.0633 48.7884 26.1232 48.7896 27.6669 48.7896H45.0002C46.5438 48.7896 47.6038 48.7884 48.4255 48.7212C49.2283 48.6556 49.6595 48.5354 49.9716 48.3764C50.685 48.0128 51.2651 47.4328 51.6286 46.7193C51.7876 46.4072 51.9079 45.976 51.9735 45.1733C51.9848 45.0345 51.9943 44.889 52.0021 44.7355L43.3365 37.3078C42.4237 36.5254 41.0767 36.5254 40.1639 37.3078L33.4039 43.1021L33.9648 43.5829C34.5327 44.0696 34.5984 44.9245 34.1117 45.4923C33.625 46.0602 32.7701 46.1259 32.2023 45.6392L27.8173 41.8807C27.1074 41.2721 26.0597 41.2721 25.3498 41.8807L20.7679 45.808Z" fill="#3B45FD" style="fill:#3B45FD;fill:color(display-p3 0.2314 0.2706 0.9922);fill-opacity:1;"/>
</svg>
