<svg width="52" height="52" viewBox="0 0 52 52" fill="none" xmlns="http://www.w3.org/2000/svg">
<path d="M39.5 42.5L26.5 26H48L45 36.5L39.5 42.5Z" fill="#EAEDFF" style="fill:#EAEDFF;fill:color(display-p3 0.9170 0.9283 1.0000);fill-opacity:1;"/>
<path d="M16.5 7.5L25 4H26.5V25L39 42L37.5 44.5L28.5 47.5L17.5 46.5L8.5 40L5.5 29.5V19.5L10.5 10.5L16.5 7.5Z" fill="#D2D8FE" style="fill:#D2D8FE;fill:color(display-p3 0.8235 0.8471 0.9961);fill-opacity:1;"/>
<path fill-rule="evenodd" clip-rule="evenodd" d="M26 2.71094C13.1364 2.71094 2.70833 13.139 2.70833 26.0026C2.70833 38.8662 13.1364 49.2943 26 49.2943C38.8636 49.2943 49.2917 38.8662 49.2917 26.0026C49.2917 13.139 38.8636 2.71094 26 2.71094ZM24.375 6.02586C14.0663 6.85302 5.95833 15.481 5.95833 26.0026C5.95833 37.0713 14.9313 46.0443 26 46.0443C30.1814 46.0443 34.0636 44.7638 37.2761 42.5735L25.6953 28.2133C24.8409 27.1539 24.375 25.8339 24.375 24.473L24.375 6.02586ZM39.8047 40.5319C43.3408 37.171 45.6513 32.5328 45.9966 27.3568H34.6667L28.8885 26.9956L39.8047 40.5319ZM27.625 24.1068L45.9532 24.1068C45.0481 14.4612 37.3073 6.80276 27.625 6.02586L27.625 24.1068Z" fill="#3B45FD" style="fill:#3B45FD;fill:color(display-p3 0.2314 0.2706 0.9922);fill-opacity:1;"/>
<path opacity="0.5" d="M26.5 26L26 4.5L32 5L41 10L45.5 16L47.5 26H26.5Z" fill="#3B45FD" style="fill:#3B45FD;fill:color(display-p3 0.2314 0.2706 0.9922);fill-opacity:1;"/>
</svg>
